<svg width="35" height="35" viewBox="0 0 35 35" fill="none" xmlns="http://www.w3.org/2000/svg">
<circle cx="17.5" cy="17.5" r="17.5" fill="#CEDCDE"/>
<path d="M17.3725 9.19987C17.2738 9.30341 17.22 9.44181 17.2229 9.58486L17.2229 16.9585L9.84938 16.9585C9.77692 16.9574 9.70498 16.9709 9.63782 16.9981C9.57067 17.0254 9.50966 17.0658 9.45841 17.1171C9.38221 17.1933 9.33049 17.2905 9.30986 17.3963C9.28924 17.5021 9.30064 17.6117 9.34263 17.711C9.38461 17.8102 9.45526 17.8947 9.54553 17.9537C9.63581 18.0126 9.7416 18.0432 9.84938 18.0416L17.2229 18.0416L17.2229 25.4152C17.2215 25.4873 17.2344 25.5589 17.261 25.6259C17.2875 25.6929 17.3272 25.7539 17.3776 25.8054C17.428 25.8568 17.4882 25.8977 17.5547 25.9256C17.6211 25.9536 17.6924 25.9679 17.7645 25.9679C17.8366 25.9679 17.9079 25.9536 17.9743 25.9256C18.0408 25.8977 18.101 25.8568 18.1514 25.8054C18.2018 25.7539 18.2415 25.6929 18.2681 25.6259C18.2946 25.5589 18.3075 25.4873 18.3061 25.4152L18.3061 18.0416L25.6796 18.0416C25.7517 18.0431 25.8233 18.0302 25.8903 18.0036C25.9573 17.977 26.0183 17.9374 26.0698 17.887C26.1212 17.8365 26.1621 17.7763 26.19 17.7099C26.2179 17.6434 26.2323 17.5721 26.2323 17.5C26.2323 17.428 26.2179 17.3566 26.19 17.2902C26.1621 17.2238 26.1212 17.1636 26.0698 17.1131C26.0183 17.0627 25.9573 17.023 25.8903 16.9965C25.8233 16.9699 25.7517 16.957 25.6796 16.9585L18.3061 16.9585L18.3061 9.58486C18.3083 9.47571 18.2775 9.36843 18.2177 9.27709C18.1579 9.18574 18.0719 9.11459 17.971 9.07297C17.8701 9.03135 17.7589 9.0212 17.6521 9.04384C17.5454 9.06649 17.4479 9.12087 17.3725 9.19987Z" fill="#0B4F5A"/>
</svg>
