<svg width="20" height="11" viewBox="0 0 20 11" fill="none" xmlns="http://www.w3.org/2000/svg">
<path d="M14.3685 0.993652C14.2441 0.993683 14.1226 1.03082 14.0194 1.10032C13.9163 1.16982 13.8362 1.26851 13.7894 1.38377C13.7427 1.49904 13.7314 1.62563 13.757 1.74735C13.7826 1.86907 13.8439 1.98039 13.9331 2.06706L17.0329 5.16683H1.45836C1.37554 5.16566 1.29332 5.18096 1.21646 5.21184C1.13961 5.24273 1.06966 5.28858 1.01068 5.34673C0.951695 5.40488 0.90486 5.47418 0.872892 5.55059C0.840925 5.627 0.824463 5.709 0.824463 5.79183C0.824463 5.87466 0.840925 5.95666 0.872892 6.03307C0.90486 6.10948 0.951695 6.17878 1.01068 6.23693C1.06966 6.29508 1.13961 6.34093 1.21646 6.37182C1.29332 6.4027 1.37554 6.418 1.45836 6.41683H17.0329L13.9331 9.5166C13.8732 9.57419 13.8253 9.64317 13.7923 9.7195C13.7593 9.79583 13.7419 9.87798 13.741 9.96113C13.7402 10.0443 13.7559 10.1268 13.7874 10.2037C13.8188 10.2807 13.8653 10.3507 13.9241 10.4095C13.9829 10.4683 14.0528 10.5147 14.1298 10.5462C14.2068 10.5776 14.2892 10.5934 14.3724 10.5925C14.4555 10.5917 14.5377 10.5742 14.614 10.5412C14.6904 10.5083 14.7593 10.4604 14.8169 10.4004L18.9836 6.23372C19.1008 6.11651 19.1666 5.95756 19.1666 5.79183C19.1666 5.6261 19.1008 5.46715 18.9836 5.34993L14.8169 1.18327C14.7587 1.12327 14.689 1.07558 14.6119 1.04301C14.5349 1.01044 14.4521 0.993656 14.3685 0.993652Z" fill="#CEDCDE"/>
</svg>
