<svg width="22" height="22" viewBox="0 0 22 22" fill="none" xmlns="http://www.w3.org/2000/svg">
<path d="M10.9999 0.166672C5.02658 0.166672 0.166585 5.02666 0.166585 11V11.2708C0.165062 11.3785 0.184953 11.4854 0.225102 11.5853C0.265251 11.6852 0.324856 11.7762 0.400455 11.8528C0.476054 11.9295 0.566138 11.9904 0.665471 12.032C0.764805 12.0735 0.871408 12.0949 0.979085 12.0949C1.08676 12.0949 1.19336 12.0735 1.2927 12.032C1.39203 11.9904 1.48212 11.9295 1.55772 11.8528C1.63331 11.7762 1.69292 11.6852 1.73307 11.5853C1.77322 11.4854 1.79311 11.3785 1.79158 11.2708V11C1.79158 5.90493 5.90484 1.79167 10.9999 1.79167C16.095 1.79167 20.2083 5.90493 20.2083 11V11.2708C20.2067 11.3785 20.2266 11.4854 20.2668 11.5853C20.3069 11.6852 20.3665 11.7762 20.4421 11.8528C20.5177 11.9295 20.6078 11.9904 20.7071 12.032C20.8065 12.0735 20.9131 12.0949 21.0208 12.0949C21.1284 12.0949 21.235 12.0735 21.3344 12.032C21.4337 11.9904 21.5238 11.9295 21.5994 11.8528C21.675 11.7762 21.7346 11.6852 21.7747 11.5853C21.8149 11.4854 21.8348 11.3785 21.8333 11.2708V11C21.8333 5.02666 16.9733 0.166672 10.9999 0.166672ZM10.7164 4.48837C10.5011 4.49173 10.2959 4.58042 10.146 4.73494C9.99599 4.88947 9.9135 5.0972 9.91658 5.31251V11.2708C9.91661 11.4863 10.0022 11.693 10.1546 11.8453C10.307 11.9977 10.5136 12.0833 10.7291 12.0833H15.0624C15.1701 12.0849 15.277 12.065 15.3769 12.0248C15.4768 11.9847 15.5677 11.9251 15.6444 11.8495C15.7211 11.7739 15.782 11.6838 15.8235 11.5845C15.8651 11.4851 15.8865 11.3785 15.8865 11.2708C15.8865 11.1632 15.8651 11.0566 15.8235 10.9572C15.782 10.8579 15.7211 10.7678 15.6444 10.6922C15.5677 10.6166 15.4768 10.557 15.3769 10.5169C15.277 10.4767 15.1701 10.4568 15.0624 10.4583H11.5416V5.31251C11.5431 5.20376 11.5229 5.0958 11.4819 4.99504C11.441 4.89428 11.3803 4.80275 11.3033 4.7259C11.2263 4.64904 11.1347 4.58842 11.0339 4.54762C10.9331 4.50682 10.8251 4.48667 10.7164 4.48837ZM1.64665 13.6978C1.51262 13.6951 1.38001 13.7256 1.26063 13.7866C1.14126 13.8476 1.03883 13.9372 0.962475 14.0474C0.886121 14.1575 0.838212 14.2849 0.823021 14.4181C0.807829 14.5513 0.825826 14.6862 0.875407 14.8107C2.43125 18.8868 6.37824 21.8333 10.9999 21.8333C14.8827 21.8333 18.2965 19.7827 20.2083 16.7044V18.3125C20.2067 18.4202 20.2266 18.5271 20.2668 18.627C20.3069 18.7269 20.3665 18.8178 20.4421 18.8945C20.5177 18.9712 20.6078 19.0321 20.7071 19.0736C20.8065 19.1152 20.9131 19.1366 21.0208 19.1366C21.1284 19.1366 21.235 19.1152 21.3344 19.0736C21.4337 19.0321 21.5238 18.9712 21.5994 18.8945C21.675 18.8178 21.7346 18.7269 21.7747 18.627C21.8149 18.5271 21.8348 18.4202 21.8333 18.3125V14.5208C21.8332 14.3054 21.7476 14.0987 21.5952 13.9463C21.4429 13.794 21.2362 13.7084 21.0208 13.7083H17.2291C17.1214 13.7068 17.0145 13.7267 16.9146 13.7669C16.8147 13.807 16.7238 13.8666 16.6471 13.9422C16.5704 14.0178 16.5095 14.1079 16.468 14.2072C16.4264 14.3066 16.405 14.4132 16.405 14.5208C16.405 14.6285 16.4264 14.7351 16.468 14.8345C16.5095 14.9338 16.5704 15.0239 16.6471 15.0995C16.7238 15.1751 16.8147 15.2347 16.9146 15.2748C17.0145 15.315 17.1214 15.3349 17.2291 15.3333H19.1313C19.1193 15.3512 19.108 15.3696 19.0974 15.3884C17.5383 18.2583 14.5027 20.2083 10.9999 20.2083C7.06977 20.2083 3.71613 17.6959 2.39355 14.231C2.33728 14.0772 2.23586 13.944 2.10258 13.8488C1.96929 13.7537 1.81037 13.701 1.64665 13.6978Z" fill="#6D959C"/>
</svg>
