<svg width="16" height="16" viewBox="0 0 16 16" fill="none" xmlns="http://www.w3.org/2000/svg">
<path d="M14.4525 0.907889C14.2874 0.911787 14.1306 0.980831 14.0163 1.09995L7.99985 7.11638L1.98341 1.09995C1.92516 1.03995 1.85545 0.992258 1.77843 0.959688C1.70141 0.927118 1.61863 0.910334 1.53501 0.910331C1.41063 0.910361 1.28908 0.947501 1.18592 1.017C1.08276 1.08649 1.00269 1.18519 0.955933 1.30045C0.909181 1.41572 0.897881 1.54231 0.923479 1.66403C0.949076 1.78575 1.01041 1.89707 1.09963 1.98374L7.11606 8.00017L1.09963 14.0166C1.03964 14.0742 0.991755 14.1432 0.958766 14.2195C0.925776 14.2958 0.908348 14.378 0.907503 14.4611C0.906658 14.5443 0.922412 14.6268 0.953842 14.7038C0.985273 14.7807 1.03175 14.8507 1.09055 14.9095C1.14935 14.9683 1.21929 15.0148 1.29627 15.0462C1.37326 15.0776 1.45574 15.0934 1.53889 15.0925C1.62204 15.0917 1.70418 15.0743 1.78051 15.0413C1.85684 15.0083 1.92582 14.9604 1.98341 14.9004L7.99985 8.88396L14.0163 14.9004C14.0739 14.9604 14.1429 15.0083 14.2192 15.0413C14.2955 15.0743 14.3777 15.0917 14.4608 15.0925C14.544 15.0934 14.6265 15.0776 14.7034 15.0462C14.7804 15.0148 14.8504 14.9683 14.9092 14.9095C14.968 14.8507 15.0144 14.7807 15.0459 14.7038C15.0773 14.6268 15.093 14.5443 15.0922 14.4611C15.0914 14.378 15.0739 14.2958 15.0409 14.2195C15.008 14.1432 14.9601 14.0742 14.9001 14.0166L8.88364 8.00017L14.9001 1.98374C14.991 1.8965 15.0534 1.78384 15.0791 1.66053C15.1049 1.53721 15.0928 1.40899 15.0444 1.29268C14.996 1.17637 14.9136 1.07739 14.808 1.00873C14.7023 0.940062 14.5784 0.904914 14.4525 0.907889Z" fill="#CEDCDE"/>
</svg>
