<svg width="20" height="20" viewBox="0 0 20 20" fill="none" xmlns="http://www.w3.org/2000/svg">
<path d="M16.4525 2.90789C16.2874 2.91179 16.1306 2.98083 16.0163 3.09995L9.99985 9.11638L3.98341 3.09995C3.92516 3.03995 3.85545 2.99226 3.77843 2.95969C3.70141 2.92712 3.61863 2.91033 3.53501 2.91033C3.41063 2.91036 3.28908 2.9475 3.18592 3.017C3.08276 3.08649 3.00269 3.18519 2.95593 3.30045C2.90918 3.41572 2.89788 3.54231 2.92348 3.66403C2.94908 3.78575 3.01041 3.89707 3.09963 3.98374L9.11606 10.0002L3.09963 16.0166C3.03964 16.0742 2.99176 16.1432 2.95877 16.2195C2.92578 16.2958 2.90835 16.378 2.9075 16.4611C2.90666 16.5443 2.92241 16.6268 2.95384 16.7038C2.98527 16.7807 3.03175 16.8507 3.09055 16.9095C3.14935 16.9683 3.21929 17.0148 3.29627 17.0462C3.37326 17.0776 3.45574 17.0934 3.53889 17.0925C3.62204 17.0917 3.70418 17.0743 3.78051 17.0413C3.85684 17.0083 3.92582 16.9604 3.98341 16.9004L9.99985 10.884L16.0163 16.9004C16.0739 16.9604 16.1429 17.0083 16.2192 17.0413C16.2955 17.0743 16.3777 17.0917 16.4608 17.0925C16.544 17.0934 16.6265 17.0776 16.7034 17.0462C16.7804 17.0148 16.8504 16.9683 16.9092 16.9095C16.968 16.8507 17.0144 16.7807 17.0459 16.7038C17.0773 16.6268 17.093 16.5443 17.0922 16.4611C17.0914 16.378 17.0739 16.2958 17.0409 16.2195C17.008 16.1432 16.9601 16.0742 16.9001 16.0166L10.8836 10.0002L16.9001 3.98374C16.991 3.8965 17.0534 3.78384 17.0791 3.66053C17.1049 3.53721 17.0928 3.40899 17.0444 3.29268C16.996 3.17637 16.9136 3.07739 16.808 3.00873C16.7023 2.94006 16.5784 2.90491 16.4525 2.90789Z" fill="#CEDCDE"/>
</svg>
