<svg width="20" height="20" viewBox="0 0 20 20" fill="none" xmlns="http://www.w3.org/2000/svg">
<path d="M3.77083 0.25C1.83603 0.25 0.25 1.83603 0.25 3.77083V16.2292C0.25 18.164 1.83603 19.75 3.77083 19.75H16.2292C18.164 19.75 19.75 18.164 19.75 16.2292V3.77083C19.75 1.83603 18.164 0.25 16.2292 0.25H3.77083ZM3.77083 1.875H16.2292C17.2854 1.875 18.125 2.71455 18.125 3.77083V4.58333H1.875V3.77083C1.875 2.71455 2.71455 1.875 3.77083 1.875ZM1.875 6.20833H18.125V16.2292C18.125 17.2854 17.2854 18.125 16.2292 18.125H3.77083C2.71455 18.125 1.875 17.2854 1.875 16.2292V6.20833Z" fill="#6D959C"/>
</svg>
