<svg width="16" height="15" viewBox="0 0 16 15" fill="none" xmlns="http://www.w3.org/2000/svg">
<path d="M11.3964 0C10.4104 0 9.59829 0.802302 9.59829 1.77632V1.97368H0.607896C0.528474 1.97257 0.44962 1.98707 0.375918 2.01633C0.302216 2.04559 0.235135 2.08902 0.178574 2.14412C0.122012 2.19921 0.0770985 2.26486 0.0464426 2.33725C0.0157867 2.40963 0 2.48732 0 2.56579C0 2.64426 0.0157867 2.72194 0.0464426 2.79433C0.0770985 2.86672 0.122012 2.93237 0.178574 2.98746C0.235135 3.04256 0.302216 3.08599 0.375918 3.11525C0.44962 3.14451 0.528474 3.159 0.607896 3.15789H9.59829V3.35526C9.59829 4.32928 10.4104 5.13158 11.3964 5.13158C12.3823 5.13158 13.1945 4.32928 13.1945 3.35526V3.15789H15.3921C15.4715 3.159 15.5504 3.14451 15.6241 3.11525C15.6978 3.08599 15.7649 3.04256 15.8214 2.98746C15.878 2.93237 15.9229 2.86672 15.9536 2.79433C15.9842 2.72194 16 2.64426 16 2.56579C16 2.48732 15.9842 2.40963 15.9536 2.33725C15.9229 2.26486 15.878 2.19921 15.8214 2.14412C15.7649 2.08902 15.6978 2.04559 15.6241 2.01633C15.5504 1.98707 15.4715 1.97257 15.3921 1.97368H13.1945V1.77632C13.1945 0.802302 12.3823 0 11.3964 0ZM11.3964 1.18421C11.7346 1.18421 11.9957 1.44217 11.9957 1.77632V2.46865C11.9852 2.53221 11.9852 2.59705 11.9957 2.66062V3.35526C11.9957 3.68941 11.7346 3.94737 11.3964 3.94737C11.0581 3.94737 10.797 3.68941 10.797 3.35526V2.66293C10.8076 2.59937 10.8076 2.53452 10.797 2.47096V1.77632C10.797 1.44217 11.0581 1.18421 11.3964 1.18421ZM4.60363 4.93421C3.61768 4.93421 2.80555 5.73651 2.80555 6.71053V6.9079H0.607896C0.528474 6.90679 0.44962 6.92128 0.375918 6.95054C0.302216 6.9798 0.235135 7.02323 0.178574 7.07833C0.122012 7.13342 0.0770985 7.19907 0.0464426 7.27146C0.0157867 7.34384 0 7.42153 0 7.5C0 7.57847 0.0157867 7.65616 0.0464426 7.72854C0.0770985 7.80093 0.122012 7.86658 0.178574 7.92167C0.235135 7.97677 0.302216 8.0202 0.375918 8.04946C0.44962 8.07872 0.528474 8.09322 0.607896 8.09211H2.80555V8.28947C2.80555 9.26349 3.61768 10.0658 4.60363 10.0658C5.58958 10.0658 6.40171 9.26349 6.40171 8.28947V8.09211H15.3921C15.4715 8.09322 15.5504 8.07872 15.6241 8.04946C15.6978 8.0202 15.7649 7.97677 15.8214 7.92167C15.878 7.86658 15.9229 7.80093 15.9536 7.72854C15.9842 7.65616 16 7.57847 16 7.5C16 7.42153 15.9842 7.34384 15.9536 7.27146C15.9229 7.19907 15.878 7.13342 15.8214 7.07833C15.7649 7.02323 15.6978 6.9798 15.6241 6.95054C15.5504 6.92128 15.4715 6.90679 15.3921 6.9079H6.40171V6.71053C6.40171 5.73651 5.58958 4.93421 4.60363 4.93421ZM4.60363 6.11842C4.94187 6.11842 5.20299 6.37638 5.20299 6.71053V7.40286C5.19242 7.46642 5.19242 7.53126 5.20299 7.59483V8.28947C5.20299 8.62362 4.94187 8.88158 4.60363 8.88158C4.26539 8.88158 4.00427 8.62362 4.00427 8.28947V7.59714C4.01484 7.53358 4.01484 7.46874 4.00427 7.40517V6.71053C4.00427 6.37638 4.26539 6.11842 4.60363 6.11842ZM10.5972 9.86842C9.61128 9.86842 8.79915 10.6707 8.79915 11.6447V11.8421H0.607896C0.528474 11.841 0.44962 11.8555 0.375918 11.8848C0.302216 11.914 0.235135 11.9574 0.178574 12.0125C0.122012 12.0676 0.0770985 12.1333 0.0464426 12.2057C0.0157867 12.2781 0 12.3557 0 12.4342C0 12.5127 0.0157867 12.5904 0.0464426 12.6628C0.0770985 12.7351 0.122012 12.8008 0.178574 12.8559C0.235135 12.911 0.302216 12.9544 0.375918 12.9837C0.44962 13.0129 0.528474 13.0274 0.607896 13.0263H8.79915V13.2237C8.79915 14.1977 9.61128 15 10.5972 15C11.5832 15 12.3953 14.1977 12.3953 13.2237V13.0263H15.3921C15.4715 13.0274 15.5504 13.0129 15.6241 12.9837C15.6978 12.9544 15.7649 12.911 15.8214 12.8559C15.878 12.8008 15.9229 12.7351 15.9536 12.6628C15.9842 12.5904 16 12.5127 16 12.4342C16 12.3557 15.9842 12.2781 15.9536 12.2057C15.9229 12.1333 15.878 12.0676 15.8214 12.0125C15.7649 11.9574 15.6978 11.914 15.6241 11.8848C15.5504 11.8555 15.4715 11.841 15.3921 11.8421H12.3953V11.6447C12.3953 10.6707 11.5832 9.86842 10.5972 9.86842ZM10.5972 11.0526C10.9355 11.0526 11.1966 11.3106 11.1966 11.6447V12.3371C11.186 12.4006 11.186 12.4655 11.1966 12.529V13.2237C11.1966 13.5578 10.9355 13.8158 10.5972 13.8158C10.259 13.8158 9.99787 13.5578 9.99787 13.2237V12.5314C10.0084 12.4678 10.0084 12.4029 9.99787 12.3394V11.6447C9.99787 11.3106 10.259 11.0526 10.5972 11.0526Z" fill="#0B4F5A"/>
</svg>
