<svg width="22" height="20" viewBox="0 0 22 20"  xmlns="http://www.w3.org/2000/svg">
<path d="M6.12484 0.791656C2.84366 0.791656 0.166504 3.46881 0.166504 6.74999C0.166504 8.96874 1.83898 11.0578 3.87777 13.2003C5.91655 15.3427 8.42604 17.5126 10.4254 19.512C10.5778 19.6643 10.7844 19.7498 10.9998 19.7498C11.2153 19.7498 11.4219 19.6643 11.5743 19.512C13.5736 17.5126 16.0831 15.3427 18.1219 13.2003C20.1607 11.0578 21.8332 8.96874 21.8332 6.74999C21.8332 3.46881 19.156 0.791656 15.8748 0.791656C13.9918 0.791656 12.3523 1.80267 10.9998 3.52009C9.64739 1.80267 8.0079 0.791656 6.12484 0.791656ZM6.12484 2.41666C7.71114 2.41666 9.03158 3.26079 10.3132 5.28791C10.3865 5.4037 10.4879 5.49908 10.6079 5.56517C10.728 5.63126 10.8628 5.66591 10.9998 5.66591C11.1369 5.66591 11.2717 5.63126 11.3917 5.56517C11.5118 5.49908 11.6131 5.4037 11.6864 5.28791C12.9681 3.26079 14.2885 2.41666 15.8748 2.41666C18.2779 2.41666 20.2082 4.34692 20.2082 6.74999C20.2082 8.05207 18.9015 10.0255 16.9455 12.081C15.1618 13.9554 12.9446 15.9136 10.9998 17.8097C9.05508 15.9136 6.83789 13.9554 5.0542 12.081C3.0982 10.0255 1.7915 8.05207 1.7915 6.74999C1.7915 4.34692 3.72176 2.41666 6.12484 2.41666Z" fill="#6D959C"/>
</svg>
