<svg width="7" height="13" viewBox="0 0 7 13" fill="none" xmlns="http://www.w3.org/2000/svg">
<path d="M6.00527 0.752588C6.00293 0.864541 5.9615 0.9709 5.89003 1.04844L1.28017 6.25959L5.89003 11.4707C5.92603 11.5103 5.95465 11.5575 5.97419 11.6098C5.99373 11.662 6.0038 11.7182 6.0038 11.7749C6.00378 11.8592 5.9815 11.9417 5.9398 12.0117C5.8981 12.0816 5.83889 12.1359 5.76973 12.1676C5.70057 12.1994 5.62462 12.207 5.55158 12.1897C5.47855 12.1723 5.41176 12.1307 5.35976 12.0702L0.484758 6.55931C0.414459 6.47981 0.374968 6.372 0.374968 6.25959C0.374968 6.14718 0.414459 6.03938 0.484758 5.95987L5.35976 0.449005C5.4121 0.38736 5.47969 0.345031 5.55368 0.327568C5.62767 0.310105 5.70461 0.318323 5.77439 0.351144C5.84418 0.383965 5.90357 0.439857 5.94476 0.511494C5.98596 0.58313 6.00705 0.667168 6.00527 0.752588Z" fill="#0B4F5A"/>
</svg>
