<svg width="24" height="19" viewBox="0 0 24 19" fill="none" xmlns="http://www.w3.org/2000/svg">
<path d="M24 0H14.2861V19H24V0Z" fill="#0B4F5A"/>
<path d="M0 11.5641H2.46228C2.65169 12.702 3.76107 13.2048 5.03279 13.2048C6.08806 13.2048 6.95391 12.9402 6.95391 12.014C6.95391 11.2466 6.2504 10.982 5.46572 10.8232L3.24696 10.241C1.70466 9.87055 0.27058 9.02375 0.27058 6.82737C0.27058 4.55161 2.13758 3.44019 4.51869 3.44019C7.03509 3.44019 8.79386 4.55161 9.01032 7.11846H6.52098C6.33158 6.11289 5.46572 5.68949 4.35634 5.68949C3.62578 5.68949 2.67874 5.95411 2.67874 6.8803C2.67874 7.56832 3.35519 7.78002 4.00459 7.93879L6.16923 8.46804C8.30681 8.99729 9.36208 9.89701 9.36208 12.0669C9.33502 14.3427 7.54919 15.4541 5.00573 15.4541C2.29993 15.4541 0.13529 14.1839 0 11.5641Z" fill="#0B4F5A"/>
</svg>
