<svg width="23" height="29" viewBox="0 0 23 29" fill="none" xmlns="http://www.w3.org/2000/svg">
<path d="M11.5 0.75C7.71526 0.75 4.625 3.84026 4.625 7.625C4.625 11.4097 7.71526 14.5 11.5 14.5C15.2847 14.5 18.375 11.4097 18.375 7.625C18.375 3.84026 15.2847 0.75 11.5 0.75ZM11.5 2.8125C14.1701 2.8125 16.3125 4.95491 16.3125 7.625C16.3125 10.2951 14.1701 12.4375 11.5 12.4375C8.82991 12.4375 6.6875 10.2951 6.6875 7.625C6.6875 4.95491 8.82991 2.8125 11.5 2.8125ZM3.23523 17.25C1.73661 17.25 0.5 18.4866 0.5 19.9852V21.0313C0.5 23.5091 2.067 25.4259 4.14832 26.5742C6.22963 27.7225 8.86557 28.25 11.5 28.25C14.1344 28.25 16.7704 27.7225 18.8517 26.5742C20.6263 25.5951 21.9619 24.0306 22.3362 22.0625H22.5013V19.9852C22.5013 18.4866 21.2634 17.25 19.7648 17.25H3.23523ZM3.23523 19.3125H19.7648C20.1485 19.3125 20.4388 19.6015 20.4388 19.9852V20H20.4375V21.0313C20.4375 22.6784 19.5123 23.8553 17.8553 24.7695C16.1984 25.6837 13.8499 26.1875 11.5 26.1875C9.15005 26.1875 6.80162 25.6837 5.14465 24.7695C3.48769 23.8553 2.5625 22.6784 2.5625 21.0313V19.9852C2.5625 19.6015 2.85147 19.3125 3.23523 19.3125Z" fill="#3C727B"/>
</svg>
