<svg width="20" height="20" viewBox="0 0 20 20" fill="none" xmlns="http://www.w3.org/2000/svg">
<path d="M19.7499 9.98836C19.7468 9.77693 19.6614 9.57503 19.5119 9.42554L16.2619 6.17554C16.187 6.09756 16.0973 6.03531 15.9981 5.99242C15.8989 5.94953 15.7921 5.92688 15.684 5.92578C15.5759 5.92468 15.4687 5.94516 15.3686 5.98602C15.2685 6.02688 15.1776 6.0873 15.1012 6.16374C15.0247 6.24017 14.9643 6.3311 14.9234 6.43118C14.8826 6.53126 14.8621 6.63848 14.8632 6.74658C14.8643 6.85467 14.887 6.96146 14.9298 7.06069C14.9727 7.15992 15.035 7.24959 15.113 7.32446L16.976 9.1875L5.39575 9.1875C5.28808 9.18598 5.18119 9.20587 5.08128 9.24602C4.98136 9.28617 4.89043 9.34577 4.81375 9.42137C4.73708 9.49697 4.67619 9.58705 4.63464 9.68639C4.59308 9.78572 4.57168 9.89232 4.57168 10C4.57168 10.1077 4.59308 10.2143 4.63464 10.3136C4.67619 10.4129 4.73708 10.503 4.81375 10.5786C4.89043 10.6542 4.98136 10.7138 5.08128 10.754C5.18119 10.7941 5.28808 10.814 5.39575 10.8125L16.976 10.8125L15.113 12.6755C15.035 12.7504 14.9727 12.8401 14.9298 12.9393C14.887 13.0385 14.8643 13.1453 14.8632 13.2534C14.8621 13.3615 14.8826 13.4687 14.9234 13.5688C14.9643 13.6689 15.0247 13.7598 15.1012 13.8363C15.1776 13.9127 15.2685 13.9731 15.3686 14.014C15.4687 14.0548 15.5759 14.0753 15.684 14.0742C15.7921 14.0731 15.8989 14.0505 15.9981 14.0076C16.0973 13.9647 16.187 13.9024 16.2619 13.8245L19.5119 10.5745C19.5887 10.4976 19.6494 10.4062 19.6903 10.3055C19.7312 10.2049 19.7514 10.097 19.7499 9.98836ZM13.7916 3.22917C13.7916 1.59346 12.4481 0.25 10.8124 0.25L3.22908 0.249999C1.59337 0.249999 0.249914 1.59345 0.249914 3.22917L0.249913 16.7708C0.249913 18.4065 1.59337 19.75 3.22908 19.75L10.8124 19.75C12.4481 19.75 13.7916 18.4065 13.7916 16.7708L13.7916 15.6875C13.7931 15.5798 13.7732 15.4729 13.7331 15.373C13.6929 15.2731 13.6333 15.1822 13.5577 15.1055C13.4821 15.0288 13.392 14.9679 13.2927 14.9264C13.1934 14.8848 13.0868 14.8634 12.9791 14.8634C12.8714 14.8634 12.7648 14.8848 12.6655 14.9264C12.5661 14.9679 12.4761 15.0288 12.4005 15.1055C12.3249 15.1822 12.2653 15.2731 12.2251 15.373C12.185 15.4729 12.1651 15.5798 12.1666 15.6875L12.1666 16.7708C12.1666 17.5282 11.5698 18.125 10.8124 18.125L3.22908 18.125C2.47171 18.125 1.87491 17.5282 1.87491 16.7708L1.87491 3.22917C1.87491 2.47179 2.47171 1.875 3.22908 1.875L10.8124 1.875C11.5698 1.875 12.1666 2.47179 12.1666 3.22917L12.1666 4.3125C12.1651 4.42017 12.185 4.52706 12.2251 4.62697C12.2653 4.72688 12.3249 4.81782 12.4005 4.8945C12.4761 4.97117 12.5661 5.03206 12.6655 5.07361C12.7648 5.11517 12.8714 5.13657 12.9791 5.13657C13.0868 5.13657 13.1934 5.11517 13.2927 5.07361C13.392 5.03206 13.4821 4.97117 13.5577 4.8945C13.6333 4.81782 13.6929 4.72688 13.7331 4.62697C13.7732 4.52706 13.7931 4.42017 13.7916 4.3125L13.7916 3.22917Z" fill="#6D959C"/>
</svg>
