<svg width="7" height="13" viewBox="0 0 7 13" fill="none" xmlns="http://www.w3.org/2000/svg">
<path d="M0.994734 0.752588C0.997072 0.864541 1.0385 0.9709 1.10997 1.04844L5.71983 6.25959L1.10997 11.4707C1.07397 11.5103 1.04535 11.5575 1.02581 11.6098C1.00627 11.662 0.9962 11.7182 0.996198 11.7749C0.996217 11.8592 1.0185 11.9417 1.0602 12.0117C1.1019 12.0816 1.16111 12.1359 1.23027 12.1676C1.29943 12.1994 1.37538 12.207 1.44842 12.1897C1.52145 12.1723 1.58824 12.1307 1.64024 12.0702L6.51524 6.55931C6.58554 6.47981 6.62503 6.372 6.62503 6.25959C6.62503 6.14718 6.58554 6.03938 6.51524 5.95987L1.64024 0.449005C1.5879 0.38736 1.52031 0.345031 1.44632 0.327568C1.37233 0.310105 1.29539 0.318323 1.22561 0.351144C1.15582 0.383965 1.09643 0.439857 1.05524 0.511494C1.01404 0.58313 0.992948 0.667168 0.994734 0.752588Z" fill="#0B4F5A"/>
</svg>
