<svg width="15" height="15" viewBox="0 0 15 15" fill="none" xmlns="http://www.w3.org/2000/svg">
<path d="M5.9824 0C2.67504 0 0 2.61372 0 5.84527C0 9.07683 2.67504 11.6905 5.9824 11.6905C7.16321 11.6905 8.25605 11.3521 9.18255 10.7772L13.5044 15L15 13.5387L10.7331 9.38037C11.5002 8.39721 11.9648 7.17899 11.9648 5.84527C11.9648 2.61372 9.28977 0 5.9824 0ZM5.9824 1.37536C8.51585 1.37536 10.5572 3.3699 10.5572 5.84527C10.5572 8.32065 8.51585 10.3152 5.9824 10.3152C3.44896 10.3152 1.40762 8.32065 1.40762 5.84527C1.40762 3.3699 3.44896 1.37536 5.9824 1.37536Z" fill="#0B4F5A"/>
</svg>
