<svg width="22" height="22" viewBox="0 0 22 22" fill="none" xmlns="http://www.w3.org/2000/svg">
<path d="M10.9994 0.16663C10.1452 0.16663 9.32165 0.274654 8.53543 0.457564C8.37148 0.495831 8.22346 0.584077 8.11184 0.710106C8.00021 0.836136 7.93049 0.993725 7.9123 1.1611L7.73985 2.7332C7.68346 3.24837 7.38587 3.70417 6.93688 3.96359C6.48878 4.22248 5.94488 4.25116 5.47057 4.04293H5.46951L4.02542 3.40711C3.87139 3.33932 3.70011 3.32104 3.53524 3.35477C3.37037 3.3885 3.22004 3.47259 3.10501 3.59542C1.98241 4.79224 1.12083 6.24146 0.631539 7.85893C0.582801 8.01992 0.585223 8.19206 0.63847 8.35162C0.691718 8.51117 0.793167 8.65027 0.928821 8.74972L2.20999 9.68917C2.62835 9.99675 2.87438 10.4815 2.87438 11C2.87438 11.5187 2.62835 12.0039 2.20999 12.3108L0.928821 13.2492C0.793167 13.3486 0.691718 13.4877 0.63847 13.6473C0.585223 13.8068 0.582801 13.9789 0.631539 14.1399C1.12078 15.7572 1.98167 17.2075 3.10501 18.4045C3.22016 18.5272 3.37055 18.611 3.53542 18.6446C3.70028 18.6781 3.87149 18.6597 4.02542 18.5918L5.46951 17.9559C5.94405 17.7472 6.48847 17.7773 6.93688 18.0363C7.38587 18.2958 7.68346 18.7516 7.73985 19.2667L7.9123 20.8388C7.93062 21.0059 8.00029 21.1631 8.11169 21.2889C8.2231 21.4147 8.37077 21.5029 8.53437 21.5413C9.32095 21.7249 10.1452 21.8333 10.9994 21.8333C11.8535 21.8333 12.6771 21.7253 13.4633 21.5424C13.6273 21.5041 13.7753 21.4158 13.8869 21.2898C13.9985 21.1638 14.0683 21.0062 14.0865 20.8388L14.2589 19.2667C14.3153 18.7516 14.6129 18.2958 15.0619 18.0363C15.51 17.7774 16.0539 17.7477 16.5282 17.9559L17.9733 18.5918C18.1273 18.6597 18.2985 18.6781 18.4633 18.6446C18.6282 18.611 18.7786 18.5272 18.8937 18.4045C20.0163 17.2077 20.8779 15.7574 21.3672 14.1399C21.416 13.9789 21.4135 13.8068 21.3603 13.6473C21.307 13.4877 21.2056 13.3486 21.0699 13.2492L19.7888 12.3108C19.3704 12.0039 19.1244 11.5187 19.1244 11C19.1244 10.4812 19.3704 9.99607 19.7888 9.68917L21.0699 8.75078C21.2056 8.65133 21.307 8.51223 21.3603 8.35268C21.4135 8.19312 21.416 8.02098 21.3672 7.85999C20.8779 6.24251 20.0163 4.79224 18.8937 3.59542C18.7786 3.47277 18.6282 3.38888 18.4633 3.35534C18.2985 3.3218 18.1273 3.34025 17.9733 3.40817L16.5282 4.04399C16.0539 4.25222 15.51 4.22248 15.0619 3.96359C14.6129 3.70417 14.3153 3.24837 14.2589 2.7332L14.0865 1.1611C14.0681 0.994054 13.9985 0.836803 13.8871 0.710996C13.7757 0.58519 13.628 0.497018 13.4644 0.458622C12.6778 0.275047 11.8535 0.16663 10.9994 0.16663ZM10.9994 1.79163C11.5271 1.79163 12.0339 1.88636 12.5419 1.97571L12.6434 2.90988C12.756 3.93846 13.354 4.85331 14.2494 5.37065C15.1454 5.88833 16.2363 5.94784 17.1831 5.53146L18.0421 5.15377C18.7018 5.94589 19.224 6.8406 19.5888 7.82085L18.8271 8.37944C17.9931 8.99121 17.4994 9.96522 17.4994 11C17.4994 12.0347 17.9931 13.0087 18.8271 13.6205L19.5888 14.1791C19.224 15.1593 18.7018 16.054 18.0421 16.8462L17.1831 16.4685C16.2363 16.0521 15.1454 16.1116 14.2494 16.6293C13.354 17.1466 12.756 18.0615 12.6434 19.0901L12.5419 20.0242C12.034 20.1133 11.5269 20.2083 10.9994 20.2083C10.4716 20.2083 9.96484 20.1136 9.4569 20.0242L9.35533 19.0901C9.24273 18.0615 8.6448 17.1466 7.74938 16.6293C6.85337 16.1116 5.76249 16.0521 4.8157 16.4685L3.95665 16.8462C3.29686 16.0542 2.77468 15.1594 2.40994 14.1791L3.17166 13.6205C4.00563 13.0087 4.49938 12.0347 4.49938 11C4.49938 9.96522 4.00522 8.99058 3.17166 8.37838L2.40994 7.81979C2.77489 6.83917 3.29766 5.94504 3.95771 5.15271L4.8157 5.5304C5.76249 5.94678 6.85337 5.88833 7.74938 5.37065C8.6448 4.85331 9.24273 3.93846 9.35533 2.90988L9.4569 1.97571C9.96479 1.88661 10.4719 1.79163 10.9994 1.79163ZM10.9994 6.66663C8.61576 6.66663 6.66604 8.61635 6.66604 11C6.66604 13.3836 8.61576 15.3333 10.9994 15.3333C13.383 15.3333 15.3327 13.3836 15.3327 11C15.3327 8.61635 13.383 6.66663 10.9994 6.66663ZM10.9994 8.29163C12.5048 8.29163 13.7077 9.49457 13.7077 11C13.7077 12.5054 12.5048 13.7083 10.9994 13.7083C9.49398 13.7083 8.29104 12.5054 8.29104 11C8.29104 9.49457 9.49398 8.29163 10.9994 8.29163Z" fill="#6D959C"/>
</svg>
