<svg width="20" height="20" viewBox="0 0 20 20" fill="none" xmlns="http://www.w3.org/2000/svg">
<path d="M16 0.5C14.0759 0.5 12.5 2.07589 12.5 4C12.5 4.29288 12.5993 4.55473 12.668 4.82715L6.67285 7.82617C6.02956 7.03697 5.09075 6.5 4 6.5C2.07589 6.5 0.5 8.07589 0.5 10C0.5 11.9241 2.07589 13.5 4 13.5C5.09075 13.5 6.02956 12.963 6.67285 12.1738L12.668 15.1728C12.5993 15.4453 12.5 15.7071 12.5 16C12.5 17.9241 14.0759 19.5 16 19.5C17.9241 19.5 19.5 17.9241 19.5 16C19.5 14.0759 17.9241 12.5 16 12.5C14.9092 12.5 13.9704 13.037 13.3271 13.8262L7.33203 10.8271C7.40073 10.5547 7.5 10.2929 7.5 10C7.5 9.70712 7.40073 9.44527 7.33203 9.17285L13.3271 6.17383C13.9704 6.96303 14.9092 7.5 16 7.5C17.9241 7.5 19.5 5.92411 19.5 4C19.5 2.07589 17.9241 0.5 16 0.5ZM16 2C17.1135 2 18 2.88655 18 4C18 5.11345 17.1135 6 16 6C14.8865 6 14 5.11345 14 4C14 2.88655 14.8865 2 16 2ZM4 8C5.11345 8 6 8.88655 6 10C6 11.1135 5.11345 12 4 12C2.88655 12 2 11.1135 2 10C2 8.88655 2.88655 8 4 8ZM16 14C17.1135 14 18 14.8865 18 16C18 17.1135 17.1135 18 16 18C14.8865 18 14 17.1135 14 16C14 14.8865 14.8865 14 16 14Z" fill="#0B4F5A"/>
</svg>
