<svg width="21" height="11" viewBox="0 0 21 11" fill="none" xmlns="http://www.w3.org/2000/svg">
<path d="M10.5868 0C6.05387 0 2.05989 3.14186 1.00032 7.25885C0.960697 7.41318 0.984007 7.57693 1.06512 7.71407C1.14623 7.85121 1.2785 7.95052 1.43283 7.99014C1.58716 8.02976 1.7509 8.00645 1.88805 7.92533C2.02519 7.84422 2.12449 7.71195 2.16411 7.55762C3.07713 4.01009 6.61419 1.20134 10.5868 1.20134C14.5593 1.20134 18.1076 4.01108 19.0204 7.55762C19.06 7.71195 19.1593 7.84422 19.2964 7.92533C19.4336 8.00645 19.5973 8.02976 19.7516 7.99014C19.906 7.95052 20.0382 7.85121 20.1194 7.71407C20.2005 7.57693 20.2238 7.41318 20.1842 7.25885C19.1243 3.14087 15.1197 0 10.5868 0ZM10.593 3.20356C8.46262 3.20356 6.72309 4.9431 6.72309 7.07349C6.72309 9.20389 8.46262 10.9442 10.593 10.9442C12.7234 10.9442 14.4637 9.20389 14.4637 7.07349C14.4637 4.9431 12.7234 3.20356 10.593 3.20356ZM10.593 4.4049C12.0742 4.4049 13.2624 5.59235 13.2624 7.07349C13.2624 8.55464 12.0742 9.74287 10.593 9.74287C9.11187 9.74287 7.92442 8.55464 7.92442 7.07349C7.92442 5.59235 9.11187 4.4049 10.593 4.4049Z" fill="#6D959C"/>
</svg>
