<svg width="20" height="20" viewBox="0 0 20 20" fill="none" xmlns="http://www.w3.org/2000/svg">
<path d="M9.98836 0.249988C9.77693 0.25308 9.57503 0.338471 9.42554 0.488026L6.17554 3.73803C6.09756 3.81289 6.03531 3.90257 5.99242 4.0018C5.94953 4.10103 5.92688 4.20781 5.92578 4.31591C5.92468 4.424 5.94516 4.53123 5.98602 4.63131C6.02688 4.73139 6.0873 4.82231 6.16374 4.89875C6.24017 4.97519 6.3311 5.03561 6.43118 5.07647C6.53126 5.11733 6.63848 5.13781 6.74658 5.13671C6.85467 5.13561 6.96146 5.11295 7.06069 5.07007C7.15992 5.02718 7.24959 4.96493 7.32446 4.88695L9.1875 3.02391V14.6042C9.18598 14.7118 9.20587 14.8187 9.24602 14.9186C9.28617 15.0185 9.34577 15.1095 9.42137 15.1861C9.49697 15.2628 9.58705 15.3237 9.68639 15.3653C9.78572 15.4068 9.89232 15.4282 10 15.4282C10.1077 15.4282 10.2143 15.4068 10.3136 15.3653C10.4129 15.3237 10.503 15.2628 10.5786 15.1861C10.6542 15.1095 10.7138 15.0185 10.754 14.9186C10.7941 14.8187 10.814 14.7118 10.8125 14.6042V3.02391L12.6755 4.88695C12.7504 4.96493 12.8401 5.02718 12.9393 5.07007C13.0385 5.11295 13.1453 5.13561 13.2534 5.13671C13.3615 5.13781 13.4687 5.11733 13.5688 5.07647C13.6689 5.03561 13.7598 4.97519 13.8363 4.89875C13.9127 4.82231 13.9731 4.73139 14.014 4.63131C14.0548 4.53123 14.0753 4.424 14.0742 4.31591C14.0731 4.20781 14.0505 4.10103 14.0076 4.0018C13.9647 3.90257 13.9024 3.81289 13.8245 3.73803L10.5745 0.488026C10.4976 0.411178 10.4062 0.350517 10.3055 0.309631C10.2049 0.268745 10.097 0.248464 9.98836 0.249988ZM3.22917 6.20832C1.59346 6.20832 0.25 7.55178 0.25 9.18749V16.7708C0.25 18.4065 1.59346 19.75 3.22917 19.75H16.7708C18.4065 19.75 19.75 18.4065 19.75 16.7708V9.18749C19.75 7.55178 18.4065 6.20832 16.7708 6.20832H15.6875C15.5798 6.2068 15.4729 6.22669 15.373 6.26684C15.2731 6.30699 15.1822 6.36659 15.1055 6.44219C15.0288 6.51779 14.9679 6.60787 14.9264 6.70721C14.8848 6.80654 14.8634 6.91314 14.8634 7.02082C14.8634 7.1285 14.8848 7.2351 14.9264 7.33443C14.9679 7.43377 15.0288 7.52385 15.1055 7.59945C15.1822 7.67505 15.2731 7.73466 15.373 7.7748C15.4729 7.81495 15.5798 7.83484 15.6875 7.83332H16.7708C17.5282 7.83332 18.125 8.43011 18.125 9.18749V16.7708C18.125 17.5282 17.5282 18.125 16.7708 18.125H3.22917C2.47179 18.125 1.875 17.5282 1.875 16.7708V9.18749C1.875 8.43011 2.47179 7.83332 3.22917 7.83332H4.3125C4.42017 7.83484 4.52706 7.81495 4.62697 7.7748C4.72688 7.73466 4.81782 7.67505 4.8945 7.59945C4.97117 7.52385 5.03206 7.43377 5.07361 7.33443C5.11517 7.2351 5.13657 7.1285 5.13657 7.02082C5.13657 6.91314 5.11517 6.80654 5.07361 6.70721C5.03206 6.60787 4.97117 6.51779 4.8945 6.44219C4.81782 6.36659 4.72688 6.30699 4.62697 6.26684C4.52706 6.22669 4.42017 6.2068 4.3125 6.20832H3.22917Z" fill="#6D959C"/>
</svg>
