<svg width="23" height="29" viewBox="0 0 23 29" fill="none" xmlns="http://www.w3.org/2000/svg">
<path d="M11.4993 0C7.54276 0 4.31224 3.25882 4.31224 7.25C4.31224 11.2412 7.54276 14.5 11.4993 14.5C15.4558 14.5 18.6864 11.2412 18.6864 7.25C18.6864 3.25882 15.4558 0 11.4993 0ZM11.4993 2.175C14.2906 2.175 16.5302 4.43427 16.5302 7.25C16.5302 10.0657 14.2906 12.325 11.4993 12.325C8.70801 12.325 6.46836 10.0657 6.46836 7.25C6.46836 4.43427 8.70801 2.175 11.4993 2.175ZM2.85938 17.4C1.29274 17.4 0 18.7041 0 20.2844V21.3875C0 24.0005 1.63813 26.0219 3.81392 27.2328C5.9897 28.4438 8.74529 29 11.4993 29C14.2533 29 17.0089 28.4438 19.1847 27.2328C21.0399 26.2003 22.4361 24.5504 22.8273 22.475H23V20.2844C23 18.7041 21.7059 17.4 20.1392 17.4H2.85938ZM2.85938 19.575H20.1392C20.5404 19.575 20.8439 19.8797 20.8439 20.2844V20.3H20.8425V21.3875C20.8425 23.1245 19.8753 24.3656 18.1431 25.3297C16.4109 26.2937 13.9559 26.825 11.4993 26.825C9.04269 26.825 6.58765 26.2937 4.85548 25.3297C3.1233 24.3656 2.15612 23.1245 2.15612 21.3875V20.2844C2.15612 19.8797 2.45821 19.575 2.85938 19.575Z" fill="#0B4F5A"/>
</svg>
