<svg width="107" height="95" viewBox="0 0 107 95" fill="none" xmlns="http://www.w3.org/2000/svg">
<path fill-rule="evenodd" clip-rule="evenodd" d="M32.8754 11.0103C32.8754 5.17192 37.8413 0.416504 43.9379 0.416504H95.5629C101.66 0.416504 106.625 5.17192 106.625 11.0103V48.6769C106.625 54.5152 101.66 59.2707 95.5629 59.2707H82.0421V52.2082H95.5629C97.6034 52.2082 99.2504 50.6309 99.2504 48.6769V11.0103C99.2504 9.05629 97.6034 7.479 95.5629 7.479H43.9379C41.8975 7.479 40.2504 9.05629 40.2504 11.0103V31.0207H32.8754V11.0103ZM45.1671 14.5415C45.1671 13.2467 46.2734 12.1873 47.6254 12.1873H50.0838C51.4359 12.1873 52.5421 13.2467 52.5421 14.5415V16.8957C52.5421 18.1905 51.4359 19.2498 50.0838 19.2498H47.6254C46.2734 19.2498 45.1671 18.1905 45.1671 16.8957V14.5415ZM86.9588 14.5415C86.9588 13.242 88.0601 12.1873 89.4171 12.1873H91.8754C93.2324 12.1873 94.3338 13.242 94.3338 14.5415V16.8957C94.3338 18.1952 93.2324 19.2498 91.8754 19.2498H89.4171C88.0601 19.2498 86.9588 18.1952 86.9588 16.8957V14.5415ZM45.1671 28.6665C45.1671 27.3717 46.2734 26.3123 47.6254 26.3123H50.0838C51.4359 26.3123 52.5421 27.3717 52.5421 28.6665V31.0207H45.1671V28.6665ZM86.9588 28.6665C86.9588 27.367 88.0601 26.3123 89.4171 26.3123H91.8754C93.2324 26.3123 94.3338 27.367 94.3338 28.6665V31.0207C94.3338 32.3202 93.2324 33.3748 91.8754 33.3748H89.4171C88.0601 33.3748 86.9588 32.3202 86.9588 31.0207V28.6665ZM0.0976562 46.3227C0.0976562 40.5138 5.09422 35.729 11.1602 35.729H66.0629C72.1289 35.729 77.1254 40.5138 77.1254 46.3227V83.9894C77.1254 89.7983 72.1289 94.5831 66.0629 94.5831H11.1602C5.09422 94.5831 0.0976562 89.7983 0.0976562 83.9894V46.3227ZM86.9588 42.7915C86.9588 41.492 88.0601 40.4373 89.4171 40.4373H91.8754C93.2324 40.4373 94.3338 41.492 94.3338 42.7915V45.1457C94.3338 46.4452 93.2324 47.4998 91.8754 47.4998H89.4171C88.0601 47.4998 86.9588 46.4452 86.9588 45.1457V42.7915ZM66.0629 42.7915H11.1602C9.07918 42.7915 7.47266 44.3299 7.47266 46.3227V71.6576V83.9894C7.47266 85.9822 9.07918 87.5207 11.1602 87.5207H32.7506H66.0629C68 87.5207 69.7504 86.5 69.7504 83.9894V46.3227C69.7504 44.3299 68.1439 42.7915 66.0629 42.7915Z" fill="#0B4F5A"/>
</svg>
