<svg width="685" height="840" viewBox="0 0 685 840" fill="none" xmlns="http://www.w3.org/2000/svg">
<rect width="685" height="840" rx="20" fill="#0B4F5A"/>
<path d="M213.109 565.665L211.901 565.005C211.282 564.665 210.823 564.095 210.624 563.419C210.426 562.743 210.505 562.016 210.843 561.398L216.394 551.296C216.734 550.678 217.306 550.22 217.985 550.023C218.663 549.825 219.393 549.904 220.013 550.242L221.744 551.186C221.807 551.216 221.864 551.259 221.911 551.312C221.958 551.365 221.993 551.426 222.015 551.493C222.037 551.56 222.045 551.631 222.039 551.701C222.032 551.771 222.012 551.84 221.978 551.902C221.945 551.964 221.899 552.018 221.844 552.062C221.788 552.106 221.725 552.138 221.656 552.156C221.588 552.175 221.517 552.179 221.447 552.17C221.377 552.16 221.31 552.136 221.249 552.1L219.519 551.154C219.141 550.948 218.697 550.9 218.284 551.021C217.871 551.141 217.523 551.42 217.316 551.797L211.767 561.898C211.561 562.272 211.512 562.712 211.63 563.123C211.748 563.533 212.024 563.88 212.397 564.088L213.606 564.749C213.984 564.954 214.428 565.002 214.841 564.881C215.254 564.761 215.602 564.482 215.809 564.106L219.494 557.399C219.523 557.333 219.566 557.274 219.619 557.226C219.672 557.177 219.734 557.14 219.802 557.117C219.871 557.093 219.943 557.084 220.015 557.09C220.086 557.096 220.156 557.117 220.22 557.151C220.283 557.185 220.339 557.232 220.383 557.289C220.427 557.345 220.459 557.411 220.477 557.48C220.495 557.55 220.498 557.622 220.486 557.693C220.474 557.764 220.448 557.832 220.409 557.892L216.723 564.598C216.385 565.217 215.815 565.677 215.138 565.877C214.46 566.077 213.731 566.001 213.109 565.665Z" fill="#8CADB2"/>
<path d="M207.956 576.274L205.791 575.094C203.779 573.995 203.104 571.357 204.283 569.208L212.64 554.019C212.712 553.909 212.822 553.831 212.949 553.799C213.076 553.767 213.21 553.783 213.325 553.845C213.441 553.907 213.528 554.01 213.571 554.134C213.613 554.257 213.608 554.392 213.555 554.512L205.21 569.703C204.308 571.347 204.797 573.355 206.302 574.175L208.468 575.358C209.976 576.181 211.928 575.511 212.838 573.88L222.345 556.576C223.247 554.933 222.758 552.925 221.25 552.104C221.135 552.035 221.052 551.925 221.017 551.796C220.982 551.668 220.997 551.53 221.061 551.413C221.124 551.296 221.231 551.207 221.358 551.166C221.485 551.124 221.624 551.133 221.744 551.19C223.756 552.289 224.431 554.928 223.252 557.076L213.748 574.377C212.561 576.518 209.966 577.373 207.956 576.274Z" fill="#8CADB2"/>
<path d="M418.039 245.705H132.976C125.969 245.705 120.288 251.367 120.288 258.351V496.824C120.288 503.809 125.969 509.471 132.976 509.471H418.039C425.046 509.471 430.727 503.809 430.727 496.824V258.351C430.727 251.367 425.046 245.705 418.039 245.705Z" fill="white"/>
<path d="M129.761 245.705H421.254C422.498 245.704 423.731 245.947 424.881 246.421C426.031 246.895 427.077 247.591 427.957 248.467C428.838 249.344 429.536 250.385 430.013 251.532C430.489 252.678 430.735 253.906 430.735 255.147V274.96H120.288V255.147C120.288 252.642 121.286 250.241 123.063 248.47C124.839 246.699 127.249 245.705 129.761 245.705Z" fill="#23616B"/>
<path d="M132.84 260.161C132.84 259.469 133.046 258.792 133.432 258.216C133.818 257.64 134.367 257.192 135.009 256.927C135.651 256.662 136.357 256.593 137.038 256.728C137.72 256.863 138.345 257.197 138.837 257.687C139.328 258.177 139.662 258.801 139.797 259.48C139.932 260.159 139.862 260.863 139.596 261.502C139.33 262.142 138.879 262.689 138.301 263.073C137.724 263.457 137.044 263.662 136.35 263.661C135.889 263.661 135.432 263.571 135.006 263.395C134.58 263.219 134.193 262.961 133.867 262.636C133.541 262.311 133.283 261.925 133.107 261.5C132.931 261.076 132.84 260.621 132.84 260.161Z" fill="#3C727B"/>
<path d="M147.581 260.161C147.581 259.469 147.787 258.792 148.173 258.216C148.559 257.64 149.107 257.192 149.749 256.927C150.391 256.662 151.097 256.593 151.779 256.728C152.46 256.863 153.086 257.197 153.577 257.687C154.068 258.177 154.402 258.801 154.537 259.48C154.672 260.159 154.603 260.863 154.336 261.502C154.07 262.142 153.62 262.689 153.042 263.073C152.464 263.457 151.785 263.662 151.09 263.661C150.629 263.661 150.172 263.571 149.746 263.395C149.32 263.219 148.933 262.961 148.607 262.636C148.282 262.311 148.023 261.925 147.847 261.5C147.671 261.076 147.58 260.621 147.581 260.161Z" fill="#54848B"/>
<path d="M162.311 260.161C162.311 259.469 162.517 258.792 162.902 258.216C163.288 257.641 163.837 257.192 164.479 256.927C165.12 256.662 165.826 256.593 166.508 256.728C167.189 256.863 167.815 257.196 168.306 257.686C168.797 258.175 169.131 258.799 169.267 259.478C169.402 260.157 169.333 260.861 169.067 261.501C168.801 262.14 168.351 262.687 167.774 263.072C167.196 263.456 166.517 263.661 165.822 263.661C164.891 263.661 163.998 263.293 163.339 262.636C162.681 261.98 162.311 261.089 162.311 260.161Z" fill="#78A9B1"/>
<path opacity="0.5" d="M232.892 298.196H144.892V385.907H232.892V298.196Z" fill="#23616B"/>
<path opacity="0.5" d="M326.813 304.734H256.816C256.379 304.734 255.947 304.648 255.543 304.482C255.14 304.315 254.773 304.071 254.465 303.763C254.156 303.455 253.911 303.089 253.744 302.687C253.578 302.285 253.492 301.854 253.492 301.418C253.492 300.983 253.578 300.552 253.744 300.15C253.911 299.748 254.156 299.383 254.465 299.075C254.774 298.767 255.14 298.523 255.544 298.357C255.947 298.191 256.379 298.105 256.816 298.106H326.813C327.25 298.105 327.682 298.191 328.086 298.357C328.49 298.523 328.856 298.767 329.165 299.075C329.474 299.383 329.719 299.748 329.886 300.15C330.054 300.552 330.14 300.983 330.14 301.418C330.14 302.298 329.789 303.141 329.165 303.763C328.542 304.385 327.695 304.734 326.813 304.734Z" fill="#23616B"/>
<path opacity="0.5" d="M410.521 300.288H340.524C339.644 300.288 338.8 299.94 338.177 299.32C337.553 298.701 337.202 297.86 337.2 296.983C337.2 296.104 337.55 295.262 338.174 294.64C338.797 294.019 339.642 293.67 340.524 293.67H410.521C411.403 293.67 412.249 294.019 412.872 294.64C413.496 295.261 413.847 296.104 413.848 296.983C413.845 297.86 413.493 298.701 412.87 299.32C412.246 299.94 411.402 300.288 410.521 300.288Z" fill="#23616B"/>
<path opacity="0.3" d="M340.664 330.251H255.644C255.072 330.251 254.524 330.025 254.12 329.622C253.716 329.219 253.489 328.673 253.489 328.104C253.489 327.534 253.716 326.988 254.12 326.585C254.524 326.182 255.072 325.956 255.644 325.956H340.664C340.947 325.955 341.228 326.011 341.49 326.118C341.751 326.226 341.989 326.384 342.189 326.584C342.39 326.783 342.549 327.02 342.657 327.281C342.766 327.542 342.822 327.821 342.822 328.104C342.822 328.386 342.766 328.665 342.657 328.926C342.549 329.187 342.39 329.424 342.189 329.623C341.989 329.823 341.751 329.981 341.49 330.089C341.228 330.196 340.947 330.252 340.664 330.251Z" fill="#97A3AB"/>
<path opacity="0.3" d="M372.994 330.251H350.549C350.266 330.251 349.986 330.196 349.725 330.088C349.463 329.98 349.226 329.822 349.026 329.622C348.826 329.423 348.667 329.186 348.559 328.925C348.45 328.665 348.395 328.386 348.395 328.104C348.395 327.821 348.45 327.542 348.559 327.282C348.667 327.021 348.826 326.784 349.026 326.585C349.226 326.385 349.463 326.227 349.725 326.119C349.986 326.011 350.266 325.956 350.549 325.956H372.994C373.277 325.956 373.557 326.011 373.818 326.119C374.08 326.227 374.317 326.385 374.518 326.585C374.718 326.784 374.876 327.021 374.985 327.282C375.093 327.542 375.149 327.821 375.149 328.104C375.149 328.386 375.093 328.665 374.985 328.925C374.876 329.186 374.718 329.423 374.518 329.622C374.317 329.822 374.08 329.98 373.818 330.088C373.557 330.196 373.277 330.251 372.994 330.251Z" fill="#97A3AB"/>
<path opacity="0.3" d="M287.724 343.577H255.653C255.081 343.577 254.533 343.35 254.129 342.948C253.725 342.545 253.498 341.998 253.498 341.429C253.498 340.859 253.725 340.313 254.129 339.91C254.533 339.507 255.081 339.281 255.653 339.281H287.724C288.007 339.281 288.287 339.337 288.549 339.445C288.81 339.552 289.048 339.711 289.248 339.91C289.448 340.11 289.607 340.346 289.715 340.607C289.823 340.867 289.879 341.147 289.879 341.429C289.879 341.711 289.823 341.99 289.715 342.251C289.607 342.511 289.448 342.748 289.248 342.948C289.048 343.147 288.81 343.305 288.549 343.413C288.287 343.521 288.007 343.577 287.724 343.577Z" fill="#97A3AB"/>
<path opacity="0.3" d="M339.687 343.577H295.728C295.445 343.577 295.165 343.521 294.903 343.413C294.642 343.305 294.404 343.147 294.204 342.948C294.004 342.748 293.846 342.511 293.737 342.251C293.629 341.99 293.573 341.711 293.573 341.429C293.573 341.147 293.629 340.868 293.737 340.607C293.846 340.346 294.004 340.11 294.204 339.91C294.404 339.711 294.642 339.553 294.903 339.445C295.165 339.337 295.445 339.281 295.728 339.281H339.687C340.258 339.281 340.806 339.507 341.211 339.91C341.615 340.313 341.842 340.859 341.842 341.429C341.842 341.999 341.615 342.545 341.211 342.948C340.806 343.35 340.258 343.577 339.687 343.577Z" fill="#97A3AB"/>
<path opacity="0.3" d="M372.994 343.577H350.549C350.266 343.577 349.986 343.521 349.725 343.413C349.463 343.305 349.226 343.147 349.026 342.948C348.826 342.748 348.667 342.511 348.559 342.251C348.45 341.99 348.395 341.711 348.395 341.429C348.395 341.147 348.45 340.867 348.559 340.607C348.667 340.346 348.826 340.11 349.026 339.91C349.226 339.711 349.463 339.552 349.725 339.445C349.986 339.337 350.266 339.281 350.549 339.281H372.994C373.277 339.281 373.557 339.337 373.818 339.445C374.08 339.552 374.317 339.711 374.518 339.91C374.718 340.11 374.876 340.346 374.985 340.607C375.093 340.867 375.149 341.147 375.149 341.429C375.149 341.711 375.093 341.99 374.985 342.251C374.876 342.511 374.718 342.748 374.518 342.948C374.317 343.147 374.08 343.305 373.818 343.413C373.557 343.521 373.277 343.577 372.994 343.577Z" fill="#97A3AB"/>
<path opacity="0.3" d="M299.172 355.103H255.643C255.072 355.103 254.524 354.877 254.119 354.474C253.715 354.071 253.488 353.525 253.488 352.955C253.488 352.386 253.715 351.839 254.119 351.436C254.524 351.034 255.072 350.807 255.643 350.807H299.172C299.744 350.807 300.292 351.034 300.696 351.436C301.1 351.839 301.327 352.386 301.327 352.955C301.327 353.525 301.1 354.071 300.696 354.474C300.292 354.877 299.744 355.103 299.172 355.103Z" fill="#97A3AB"/>
<path opacity="0.3" d="M382.292 355.103H311.102C310.819 355.103 310.539 355.047 310.278 354.94C310.016 354.832 309.779 354.673 309.578 354.474C309.378 354.274 309.22 354.038 309.111 353.777C309.003 353.517 308.947 353.237 308.947 352.955C308.947 352.673 309.003 352.394 309.111 352.133C309.22 351.873 309.378 351.636 309.578 351.436C309.779 351.237 310.016 351.079 310.278 350.971C310.539 350.863 310.819 350.807 311.102 350.807H382.292C382.575 350.807 382.856 350.862 383.118 350.97C383.379 351.078 383.617 351.236 383.818 351.436C384.018 351.635 384.177 351.872 384.285 352.133C384.394 352.393 384.45 352.673 384.45 352.955C384.45 353.237 384.394 353.517 384.285 353.778C384.177 354.038 384.018 354.275 383.818 354.475C383.617 354.674 383.379 354.832 383.118 354.94C382.856 355.048 382.575 355.103 382.292 355.103Z" fill="#97A3AB"/>
<path opacity="0.3" d="M340.667 372.582H255.647C255.076 372.582 254.527 372.355 254.123 371.953C253.719 371.55 253.492 371.003 253.492 370.434C253.492 369.864 253.719 369.318 254.123 368.915C254.527 368.512 255.076 368.286 255.647 368.286H340.667C340.951 368.286 341.231 368.341 341.493 368.449C341.755 368.557 341.993 368.715 342.193 368.914C342.393 369.114 342.552 369.351 342.661 369.611C342.769 369.872 342.825 370.152 342.825 370.434C342.825 370.716 342.769 370.996 342.661 371.256C342.552 371.517 342.393 371.754 342.193 371.953C341.993 372.153 341.755 372.311 341.493 372.419C341.231 372.527 340.951 372.582 340.667 372.582Z" fill="#97A3AB"/>
<path opacity="0.3" d="M372.99 372.582H350.545C350.263 372.582 349.982 372.526 349.721 372.418C349.459 372.31 349.222 372.152 349.022 371.952C348.822 371.753 348.663 371.516 348.555 371.256C348.446 370.995 348.391 370.716 348.391 370.434C348.391 370.152 348.446 369.872 348.555 369.612C348.663 369.351 348.822 369.114 349.022 368.915C349.222 368.716 349.459 368.557 349.721 368.449C349.982 368.341 350.263 368.286 350.545 368.286H372.99C373.273 368.286 373.553 368.341 373.815 368.449C374.076 368.557 374.314 368.716 374.514 368.915C374.714 369.114 374.872 369.351 374.981 369.612C375.089 369.872 375.145 370.152 375.145 370.434C375.145 370.716 375.089 370.995 374.981 371.256C374.872 371.516 374.714 371.753 374.514 371.952C374.314 372.152 374.076 372.31 373.815 372.418C373.553 372.526 373.273 372.582 372.99 372.582Z" fill="#97A3AB"/>
<path opacity="0.3" d="M287.73 385.907H255.659C255.087 385.907 254.539 385.681 254.135 385.278C253.731 384.875 253.504 384.329 253.504 383.759C253.504 383.189 253.731 382.643 254.135 382.24C254.539 381.838 255.087 381.611 255.659 381.611H287.73C288.013 381.611 288.293 381.667 288.555 381.775C288.816 381.883 289.054 382.041 289.254 382.24C289.454 382.44 289.613 382.677 289.721 382.937C289.829 383.198 289.885 383.477 289.885 383.759C289.885 384.041 289.829 384.32 289.721 384.581C289.613 384.842 289.454 385.078 289.254 385.278C289.054 385.477 288.816 385.635 288.555 385.743C288.293 385.851 288.013 385.907 287.73 385.907Z" fill="#97A3AB"/>
<path opacity="0.3" d="M339.693 385.907H295.734C295.451 385.907 295.171 385.851 294.909 385.743C294.648 385.635 294.41 385.477 294.21 385.278C294.01 385.078 293.851 384.842 293.743 384.581C293.635 384.32 293.579 384.041 293.579 383.759C293.579 383.477 293.635 383.198 293.743 382.937C293.851 382.677 294.01 382.44 294.21 382.24C294.41 382.041 294.648 381.883 294.909 381.775C295.171 381.667 295.451 381.611 295.734 381.611H339.693C340.264 381.611 340.812 381.838 341.216 382.24C341.621 382.643 341.848 383.189 341.848 383.759C341.848 384.329 341.621 384.875 341.216 385.278C340.812 385.681 340.264 385.907 339.693 385.907Z" fill="#97A3AB"/>
<path d="M194.049 403.576H144.892V413.033H194.049V403.576Z" fill="#8CADB2"/>
<path d="M194.049 413.033H144.892V422.491H194.049V413.033Z" fill="#8CADB2"/>
<path d="M194.049 422.494H144.892V431.951H194.049V422.494Z" fill="#8CADB2"/>
<path d="M230.263 408.93H203.228C202.958 408.93 202.692 408.878 202.443 408.775C202.195 408.672 201.969 408.522 201.779 408.332C201.589 408.143 201.438 407.918 201.335 407.67C201.232 407.422 201.179 407.157 201.179 406.888C201.179 406.347 201.395 405.827 201.779 405.444C202.163 405.061 202.684 404.846 203.228 404.846H230.263C230.806 404.846 231.328 405.061 231.712 405.444C232.097 405.827 232.314 406.346 232.314 406.888C232.314 407.43 232.097 407.95 231.712 408.332C231.328 408.715 230.806 408.93 230.263 408.93Z" fill="#D9DFE2"/>
<path d="M221.152 416.129H203.216C202.672 416.129 202.151 415.914 201.767 415.531C201.383 415.148 201.167 414.629 201.167 414.087C201.167 413.546 201.383 413.026 201.767 412.643C202.151 412.26 202.672 412.045 203.216 412.045H221.152C221.695 412.045 222.216 412.26 222.601 412.643C222.985 413.026 223.201 413.546 223.201 414.087C223.201 414.629 222.985 415.148 222.601 415.531C222.216 415.914 221.695 416.129 221.152 416.129Z" fill="#D9DFE2"/>
<path d="M194.049 452.481H144.892V471.809H194.049V452.481Z" fill="#8CADB2"/>
<path d="M194.049 467.035H144.892V480.857H194.049V467.035Z" fill="#8CADB2"/>
<path d="M230.263 457.836H203.228C202.684 457.836 202.163 457.621 201.779 457.238C201.395 456.855 201.179 456.336 201.179 455.794C201.179 455.526 201.232 455.26 201.335 455.012C201.438 454.765 201.589 454.54 201.779 454.35C201.969 454.16 202.195 454.01 202.443 453.907C202.692 453.805 202.958 453.752 203.228 453.752H230.263C230.806 453.752 231.328 453.967 231.712 454.35C232.097 454.733 232.314 455.252 232.314 455.794C232.314 456.336 232.097 456.855 231.712 457.238C231.328 457.621 230.806 457.836 230.263 457.836Z" fill="#D9DFE2"/>
<path d="M221.152 465.038H203.216C202.672 465.038 202.151 464.823 201.767 464.44C201.383 464.057 201.167 463.537 201.167 462.996C201.167 462.454 201.383 461.934 201.767 461.551C202.151 461.167 202.672 460.952 203.216 460.951H221.152C221.696 460.952 222.217 461.167 222.601 461.551C222.985 461.934 223.201 462.454 223.201 462.996C223.201 463.537 222.985 464.057 222.601 464.44C222.216 464.823 221.695 465.038 221.152 465.038Z" fill="#D9DFE2"/>
<path d="M433.864 269.589C433.864 269.589 435.141 284.799 431.666 284.569C428.192 284.339 421.329 277.644 407.475 278.733C393.621 279.821 376.676 282.841 366.432 264.773C356.188 246.706 379.533 241.504 379.533 241.504L433.869 269.589H433.864Z" fill="#3C727B"/>
<path d="M404.423 268.477L474.217 274.197L475.669 271.103L408.754 221.873L341.164 214L339.865 216.771L404.423 268.477Z" fill="#54848B"/>
<path d="M451.914 320.868C451.767 320.355 451.47 319.896 451.062 319.551C450.654 319.206 450.152 318.99 449.62 318.929C449.088 318.868 448.55 318.966 448.074 319.21C447.598 319.455 447.205 319.834 446.946 320.301C446.686 320.767 446.571 321.3 446.615 321.832C446.659 322.364 446.861 322.87 447.194 323.288C447.527 323.706 447.978 324.015 448.487 324.178C448.997 324.341 449.544 324.349 450.059 324.202C450.748 324.004 451.33 323.542 451.678 322.917C452.026 322.292 452.111 321.555 451.914 320.868Z" fill="#78A9B1"/>
<path d="M449.588 321.615C452.387 321.399 453.034 346.787 453.034 346.787C453.034 346.787 451.211 347.643 450.312 347.442C449.413 347.241 448.958 343.812 448.958 343.812L448.87 347.408C448.87 347.408 445.801 347.513 444.735 346.768C444.735 346.768 445.151 321.961 449.58 321.615H449.588Z" fill="#78A9B1"/>
<path d="M450.505 322.188L449.999 266.72L449.636 266.451L413.181 239.573L411.871 241.338L447.963 267.949L448.78 322.091L450.505 322.188Z" fill="#78A9B1"/>
<path d="M347.745 524.709H491.226C496.795 524.709 502.135 526.914 506.073 530.839C510.01 534.764 512.222 540.087 512.222 545.637V557.463C512.223 560.276 511.667 563.061 510.587 565.659C509.507 568.258 507.924 570.619 505.928 572.607C503.933 574.595 501.563 576.172 498.956 577.246C496.348 578.321 493.553 578.873 490.732 578.871H347.745V524.709Z" fill="#F5F6F7"/>
<path d="M634.878 546.99V555.135C634.893 559.303 633.855 563.407 631.86 567.07C628.009 574.121 620.84 578.859 612.636 578.859H343.338C341.556 578.859 340.125 577.319 340.125 575.41V574.178C340.125 572.281 341.569 570.728 343.338 570.728H507.502C508.387 569.573 509.159 568.335 509.806 567.033C511.397 563.814 512.221 560.273 512.211 556.685V546.337C512.213 544.48 511.99 542.63 511.546 540.828C510.835 537.918 509.54 535.183 507.739 532.786H343.338C341.556 532.786 340.125 531.246 340.125 529.336V528.119C340.125 526.22 341.569 524.67 343.338 524.67H613.993C623.53 524.67 631.576 531.492 634.072 540.813C634.612 542.828 634.883 544.904 634.878 546.99Z" fill="#54848B"/>
<path d="M634.072 540.85H511.546C510.835 537.94 509.54 535.205 507.739 532.808H343.338C341.556 532.808 340.125 531.268 340.125 529.358V528.141C340.125 526.242 341.569 524.692 343.338 524.692H613.993C623.53 524.707 631.576 531.529 634.072 540.85Z" fill="#3C727B"/>
<path d="M347.745 551.784L367.683 552.696L347.745 553.243V551.784Z" fill="#D5DADE"/>
<path d="M347.745 560.282L395.183 561.191L347.745 561.74V560.282Z" fill="#D5DADE"/>
<path d="M467.217 620.869H326.845C321.47 620.869 316.314 618.741 312.513 614.952C308.712 611.163 306.576 606.024 306.576 600.666V597.739C306.576 592.707 308.581 587.882 312.151 584.324C315.72 580.766 320.562 578.768 325.61 578.768H467.217V620.899V620.869Z" fill="#3C727B"/>
<path d="M620.446 620.869H460.462C455.211 620.869 450.175 618.79 446.462 615.089C442.749 611.388 440.663 606.368 440.663 601.134V598.047C440.663 592.928 442.703 588.02 446.334 584.4C449.965 580.781 454.89 578.748 460.025 578.748H620.451V620.879L620.446 620.869Z" fill="#F5F6F7"/>
<path d="M430.088 620.869H625.84C627.464 620.869 628.781 619.556 628.781 617.937V617.501C628.781 615.882 627.464 614.569 625.84 614.569H430.088C428.464 614.569 427.147 615.882 427.147 617.501V617.937C427.147 619.556 428.464 620.869 430.088 620.869Z" fill="#3C727B"/>
<path d="M430.088 585.048H625.84C627.464 585.048 628.781 583.735 628.781 582.116V581.68C628.781 580.061 627.464 578.748 625.84 578.748H430.088C428.464 578.748 427.147 580.061 427.147 581.68V582.116C427.147 583.735 428.464 585.048 430.088 585.048Z" fill="#3C727B"/>
<path d="M620.441 599.806L598.644 600.516L620.441 600.942V599.806Z" fill="#D5DADE"/>
<path d="M620.443 590.113L568.586 590.821L620.443 591.247V590.113Z" fill="#D5DADE"/>
<path d="M569.12 590.68C570.557 591.951 571.588 593.615 572.086 595.465C572.223 596.01 572.3 596.568 572.316 597.13C572.439 601.072 572.316 610.026 572.316 610.026L578.879 605.554L585.422 610.026V597.904C585.422 595.61 584.861 593.38 583.817 591.919C583.311 591.212 582.698 590.687 582.006 590.687L569.12 590.68Z" fill="#3C727B"/>
<path d="M569.12 590.68C570.557 591.951 571.588 593.615 572.086 595.465L585.234 595.642C585.234 595.642 584.717 591.382 582.006 590.68H569.12Z" fill="#0B4F5A"/>
<path d="M311.663 462.937H450.336C456.224 462.937 461.87 465.268 466.034 469.418C470.197 473.568 472.536 479.196 472.536 485.065V502.195C472.536 508.197 470.144 513.952 465.887 518.195C461.629 522.439 455.855 524.823 449.834 524.823H311.663V462.937Z" fill="#F5F6F7"/>
<path d="M472.603 486.949V500.276C472.571 505.965 469.926 510.9 466.037 513.539C464.135 514.852 461.878 515.561 459.564 515.574H307.431C305.646 515.574 304.203 517.298 304.203 519.417V520.972C304.203 523.096 305.646 524.815 307.431 524.815H570.24C577.782 524.815 584.446 520.353 588.47 513.524C591.145 508.903 592.536 503.655 592.499 498.32V487.812C592.513 484.105 591.808 480.431 590.423 476.991C587.044 468.67 579.888 462.932 571.6 462.932H307.431C305.646 462.932 304.203 464.657 304.203 466.771V468.343C304.203 470.466 305.646 472.186 307.431 472.186H460.028C463.674 472.186 466.977 474.034 469.281 476.991C471.455 479.857 472.622 483.356 472.603 486.949Z" fill="#3C727B"/>
<path d="M304.203 519.41V520.972C304.203 523.096 305.646 524.815 307.431 524.815H570.24C577.782 524.815 584.446 520.353 588.47 513.524H466.037C464.135 514.837 461.878 515.547 459.563 515.559H307.431C305.646 515.566 304.203 517.276 304.203 519.41Z" fill="#23616B"/>
<path d="M311.663 493.88L331.166 494.919L311.663 495.548V493.88Z" fill="#D5DADE"/>
<path d="M311.663 479.639L358.063 480.679L311.663 481.305V479.639Z" fill="#D5DADE"/>
<path d="M357.582 480.472C357.582 480.472 354.521 482.443 353.505 485.661C353.319 486.245 353.212 486.852 353.189 487.464C353.021 491.749 353.189 501.449 353.189 501.449L344.147 496.6L335.132 501.449V488.304C335.132 485.818 335.906 483.399 337.342 481.817C338.039 481.048 338.882 480.472 339.838 480.472H357.582Z" fill="#23616B"/>
<path d="M357.587 480.472C357.587 480.472 354.526 482.443 353.511 485.661L335.394 485.853C335.394 485.853 336.106 481.233 339.843 480.472H357.587Z" fill="#0B4F5A"/>
<path d="M117.333 519.348C117.333 519.348 145.653 531.647 150.795 531.421C155.936 531.194 187.611 521.812 187.611 521.812L186.805 527.232C186.805 527.232 162.358 541.246 153.813 542.042C145.408 542.823 116.628 534.515 113.85 532.759C111.071 531.002 109.262 521.125 117.333 519.348Z" fill="#F2A19C"/>
<path d="M113.075 474.108C113.075 474.108 102.626 472.137 97.4254 475.916C87.9976 482.783 87.4934 506.435 83.961 509.954C80.4287 513.472 71.913 511.974 71.1542 530.204C70.3953 548.433 74.5431 549.961 69.5993 558.099C64.6556 566.237 71.6881 574.382 71.6881 574.382C71.6881 574.382 68.8083 569.891 70.0443 566.648C70.0443 566.648 71.2432 573.793 75.8038 575.481C80.3644 577.169 81.0442 578.378 81.7734 580.842C81.7734 580.842 120.686 560.967 120.73 546.869C120.775 532.771 128.393 518.809 124.648 512.701C124.648 512.701 126.312 515.312 126.517 518.22C126.517 518.22 128.762 513.935 124.871 509.946C120.98 505.957 129.434 497.701 128.183 488.139C127.323 481.583 122.703 474.406 113.075 474.108Z" fill="#2D2C2C"/>
<path d="M120.773 532.781C118.286 534.505 115.166 535.917 111.251 536.819C96.5754 540.197 90.9518 527.836 88.8384 519.348C90.3725 518.503 92.0661 517.984 93.8118 517.825C94.8723 517.702 95.9871 517.619 96.9116 517.579C98.5603 516.323 101.015 511.173 101.559 503.178L102.248 503.363L113.814 506.519C113.814 506.519 113.285 510.183 113.026 513.647C112.823 516.357 112.793 518.947 113.308 519.582C114.21 519.777 114.751 519.905 114.751 519.905C117.166 523.996 119.182 528.307 120.773 532.781Z" fill="#FFBEB6"/>
<path d="M113.815 506.514C113.815 506.514 113.284 510.175 113.027 513.642C106.474 512.987 103.434 506.77 102.25 503.358L113.815 506.514Z" fill="#F2A19C"/>
<path d="M115.773 509.954C115.773 509.954 100.22 509.099 100.902 499.453C101.584 489.807 100.039 483.192 109.999 483.337C119.958 483.483 121.617 487.279 122.183 490.568C122.749 493.858 119.837 509.927 115.773 509.954Z" fill="#FFBEB6"/>
<path d="M122.104 485.17C119.912 482.098 118.051 482.605 116.97 483.404C108.813 478.146 102.848 484.636 102.848 484.636C101.311 491.482 96.0186 495.087 96.0186 495.087C96.0186 495.087 98.7253 497.033 105.372 495.826C107.404 495.457 109.285 494.17 110.922 492.566C108.997 495.245 106.715 497.649 104.139 499.712C112.195 496.676 116.103 486.092 116.498 484.971C117.386 485.887 119.121 487.866 119.561 489.713C120.159 492.224 122.737 496.151 124.228 496.085C124.228 496.087 125.392 489.78 122.104 485.17Z" fill="#2D2C2C"/>
<path d="M84.4097 564.298C83.0056 557.153 78.4252 528.548 83.0056 519.348C84.6494 516.042 91.1035 515.744 98.1855 516.034C100.388 517.453 108.785 522.81 112.233 522.142L112.426 522.095C114.05 521.691 114.651 520.555 113.309 519.575C115.94 519.404 118.582 519.569 121.172 520.067C123.644 520.528 130.266 523.95 130.266 523.95C130.266 523.95 126.924 529.967 121.997 532.044C122.835 539.514 121.589 542.808 113.815 560.062C107.245 574.646 114.7 587.775 114.7 587.775C114.7 587.775 76.0275 618.757 75.8124 602.977C75.6493 591.096 86.2043 573.451 84.4097 564.298Z" fill="#D9DFE2"/>
<path d="M116.617 621.463C117.656 621.346 118.657 621.006 119.551 620.464C120.444 619.922 121.209 619.193 121.79 618.326C121.976 618.048 122.176 617.747 122.386 617.427C126.788 610.775 128.501 590.444 138.404 568.772C140.816 563.497 149.473 562.548 151.834 556.584C151.834 556.584 157.645 537.253 140.71 536.681C123.775 536.109 95.3657 590.471 94.9158 596.169C94.4832 601.693 83.7231 625.163 116.617 621.463Z" fill="#2F4858"/>
<path d="M183.919 621.019H159.828C159.828 621.019 158.928 617.188 160.51 614.581C161.912 612.275 161.373 610.96 160.337 609.053C161.616 609.605 163.003 609.865 164.396 609.814C165.597 609.745 166.868 609.203 167.98 608.557C169.016 609.735 173.458 614.754 174.845 615.747C176.412 616.875 183.432 616.474 183.919 621.019Z" fill="#2F4858"/>
<path d="M152.389 542.269C153.84 553.11 159.508 587.339 169.504 604.036C172.718 609.42 161.384 612.438 161.322 612.413C159.802 612.017 157.266 609.6 156.099 608.55C147.984 601.26 131.509 580.618 131.509 564.069C131.509 555.997 131.365 540.586 137.253 536.669C140.88 534.276 151.813 537.972 152.389 542.269Z" fill="#2F4858"/>
<path d="M102.248 621.019C102.248 621.019 103.143 619.787 104.7 617.427C106.554 614.631 108.603 609.124 111.093 602.065C113.705 594.657 116.808 585.541 120.681 576.055C121.878 573.128 123.153 570.164 124.498 567.205C126.91 561.93 133.545 562.659 135.906 556.694C135.906 556.694 145.118 536.018 128.186 535.449C111.253 534.88 79.0792 590.759 77.2303 596.169C75.2083 602.095 65.3331 626.696 102.248 621.019Z" fill="#445A69"/>
<path d="M166.228 621.019H142.13C142.13 621.019 141.227 617.188 142.809 614.581C144.211 612.275 143.675 610.96 142.636 609.053C143.916 609.604 145.302 609.865 146.695 609.814C147.897 609.745 149.167 609.203 150.28 608.557C151.318 609.735 155.757 614.754 157.146 615.747C158.721 616.875 165.744 616.474 166.228 621.019Z" fill="#445A69"/>
<path d="M111.088 602.065C113.701 594.657 116.803 585.54 120.676 576.055C119.665 568.87 117.483 562.583 113.812 560.04C113.812 560.05 104.906 587.548 111.088 602.065Z" fill="#2F4858" fill-opacity="0.5"/>
<path d="M138.322 541.5C139.773 552.341 141.817 587.327 151.814 604.036C155.027 609.42 143.694 612.438 143.632 612.413C142.112 612.017 139.578 609.6 138.409 608.55C130.293 601.26 113.818 580.618 113.818 564.069C113.818 555.997 123.32 541.234 129.206 537.317C132.832 534.912 137.746 537.194 138.322 541.5Z" fill="#445A69"/>
<path d="M190.633 510.444L185.637 501.458L174.828 531.522L181.205 538.344L190.633 510.444Z" fill="#579099"/>
<path d="M164.54 515.707L154.492 544.314L181.201 538.344L190.629 510.444L164.54 515.707Z" fill="#78A9B1"/>
<path d="M155.03 542.873L154.563 542.057L164.07 514.982L164.544 515.707L155.03 542.873Z" fill="#D5DADE"/>
<path d="M164.073 514.982L189.393 510.072L190.636 510.444L164.548 515.707L164.073 514.982Z" fill="#D5DADE"/>
<path d="M190.632 510.444L185.228 501.897L181.785 511.545L189.388 510.072L190.632 510.444Z" fill="#F5F6F7"/>
<path d="M172.256 519.848C171.385 519.683 169.522 518.983 167.636 518.466C168.199 518.03 168.827 517.495 169 516.943C169.336 515.884 169.561 515.544 168.439 515.879C167.317 516.214 163.394 518.01 163.394 518.01C161.169 518.658 159.108 521.802 159.108 521.802C159.108 521.802 131.497 531.475 128.174 531.642C123.035 531.889 88.8292 519.343 88.8292 519.343C80.7585 521.12 82.5679 531.004 85.3463 532.759C88.1248 534.513 112.737 543.439 127.324 543.599C134.713 543.683 161.587 526.468 161.587 526.468C161.587 526.468 164.729 525.037 167.196 525.483C169.663 525.929 175.385 525.483 176.621 523.47C177.857 521.457 173.714 520.129 172.256 519.848Z" fill="#FFBEB6"/>
<path d="M106.459 525.54C106.459 525.54 103.401 535.193 92.8953 537.391C92.8953 537.391 75.545 532.061 84.1818 520.279C84.1818 520.279 92.7247 513.955 106.459 525.54Z" fill="#E7EDEF"/>
<path d="M190.183 520.575C190.192 520.311 190.161 520.047 190.091 519.792C190.091 519.792 187.619 515.889 186.806 515.729C184.334 515.236 184.334 518.483 184.861 520.573C185.232 521.926 185.934 523.166 186.905 524.182L186.806 527.235C190.971 524.953 190.183 520.575 190.183 520.575Z" fill="#FFBEB6"/>
<path d="M467.627 513.965C472.165 521.967 477.925 525.086 477.925 525.086L501.966 525.254C501.966 525.254 464.166 507.859 467.627 513.965Z" fill="#2F4858"/>
<path d="M485.654 575.767C486.274 576.486 486.348 577.287 486.034 578.139C485.448 579.714 483.543 581.463 481.338 583.21C481.053 583.434 480.804 583.639 480.596 583.828L480.426 583.976L480.297 584.092C478.231 585.962 478.999 586.4 475.287 590.2C471.052 594.531 468.158 594.588 467.337 594.186C466.642 593.841 468.078 591.54 469.66 588.953C469.737 588.827 469.811 588.707 469.89 588.576C470.103 588.231 470.313 587.881 470.523 587.536C472.382 584.422 471.92 582.951 471.512 578.292C471.183 574.508 465.757 557.121 465.757 557.121L473.823 555.793C473.823 555.793 476.149 569.625 478.809 571.77C480.23 572.916 481.83 572.941 483.197 573.791C483.293 573.85 483.389 573.911 483.481 573.973C484.282 574.471 485.013 575.075 485.654 575.767Z" fill="#FFBEB6"/>
<path d="M485.652 575.767C486.272 576.486 486.346 577.287 486.032 578.139C485.318 579.711 483.459 581.453 481.321 583.195C481.042 583.422 480.794 583.631 480.579 583.828L480.409 583.976L480.28 584.092C478.214 585.962 478.983 586.4 475.27 590.2C471.035 594.531 468.141 594.588 467.32 594.186C466.626 593.841 468.062 591.54 469.644 588.953C472.593 587.829 475.191 585.948 477.176 583.501C479.729 580.298 481.447 576.176 483.187 573.791C483.284 573.85 483.38 573.911 483.472 573.973C484.276 574.471 485.009 575.074 485.652 575.767Z" fill="#2F4858"/>
<path d="M420.732 570.295C420.216 572.758 416.676 572.332 412.721 571.339C408.766 570.346 409.703 571.499 404.069 570.846C398.436 570.194 396.745 568.077 396.58 567.242C396.431 566.503 399.217 566.256 402.208 565.936C402.584 565.897 402.95 565.852 403.34 565.808C406.714 565.411 409.199 563.258 412.276 561.499C415.188 559.831 419.568 552.986 419.568 552.986L427.293 553.652C427.293 553.652 423.194 559.764 421.608 562.423C420.676 563.987 420.71 566.064 420.812 567.668C420.903 568.543 420.877 569.427 420.732 570.295Z" fill="#FFBEB6"/>
<path d="M412.721 571.339C408.766 570.354 409.703 571.5 404.069 570.847C398.436 570.194 396.745 568.077 396.58 567.242C396.431 566.503 399.217 566.257 402.208 565.936L402.235 565.993C404.639 567.554 407.422 568.438 410.289 568.55C414.113 568.669 418.169 567.607 420.809 567.668C420.902 568.546 420.876 569.432 420.732 570.302C420.216 572.771 416.676 572.332 412.721 571.339Z" fill="#2F4858"/>
<path d="M450.703 521.243L457.792 540.672L467.044 566.05C468.728 566.186 470.423 566.044 472.06 565.628C474.322 564.995 476.925 563.31 476.925 563.31C476.925 563.31 474.497 536.117 469.719 520.479C468.483 516.466 467.114 513.218 465.579 511.385C458.069 502.417 450.703 521.243 450.703 521.243Z" fill="#2F4858"/>
<path d="M458.269 490.517C463.013 489.038 476.502 491.076 490.046 493.818L492.918 489.169L522.227 487.097C522.227 487.097 531.744 508.532 526.355 522.108C525.562 524.103 523.636 524.934 520.996 524.958C520.996 524.958 503.513 525.261 497.852 525.222C483.283 525.118 467.089 515.024 464.976 514.588C461.537 513.878 460.111 520.733 456.618 527.917C453.125 535.102 424.021 559.609 424.021 559.609C424.021 559.609 419.572 559.621 417.743 558.924C415.765 558.17 415.058 557.199 415.058 557.199C415.058 557.199 447.571 493.87 458.269 490.517Z" fill="#445A69"/>
<path d="M493.373 448.962C503.755 454.76 524.843 466.775 524.952 466.702C524.952 466.702 532.711 469.678 537.143 466.788C544.532 461.971 548.571 448.898 535.2 437.528C528.526 431.861 523.775 430.454 523.115 421.469C522.757 416.595 516.194 400.47 505.07 401.879C504.143 402.011 503.206 402.065 502.27 402.042C500.293 401.968 498.336 402.458 496.629 403.453C490.326 407.144 477.751 446.634 493.373 448.962Z" fill="#2D2C2C"/>
<path d="M502.151 444.15C502.104 444.178 507.27 445.976 510.743 444.473C514.011 443.061 516.517 437.737 516.468 437.732C514.985 437.656 513.368 436.353 512.177 427.877L511.544 428.099L500.915 431.829C500.915 431.829 501.656 435.229 502.133 438.462C502.526 441.169 502.731 443.771 502.151 444.15Z" fill="#FFBEB6"/>
<path d="M500.909 431.822C500.909 431.822 501.361 434.204 501.991 437.607C508.092 436.557 510.663 431.368 511.545 428.092L500.909 431.822Z" fill="#F2A19C"/>
<path d="M499.297 435.18C499.297 435.18 513.827 433.339 512.539 424.339C511.251 415.339 512.258 409.039 502.926 409.832C493.595 410.626 492.297 414.316 491.986 417.426C491.674 420.535 495.486 435.426 499.297 435.18Z" fill="#FFBEB6"/>
<path d="M492.557 412.501C492.557 412.501 501.792 420.547 508.107 421.235C514.423 421.922 516.831 419.917 516.831 419.917C514.325 417.652 512.314 414.898 510.92 411.826C510.603 411.103 510.098 410.478 509.458 410.014C508.817 409.551 508.064 409.266 507.277 409.189C502.766 408.761 494.21 408.522 492.557 412.501Z" fill="#2D2C2C"/>
<path d="M498.368 411.825C498.368 411.825 495.239 414.799 494.242 417.014C493.283 419.153 492.965 424.28 493.701 426.322C493.701 426.322 488.926 416.901 491.699 412.36C494.64 407.543 498.368 411.825 498.368 411.825Z" fill="#2D2C2C"/>
<path d="M489.772 465.376C490.004 494.666 489.727 488.536 492.923 491.347C493.692 492.02 495.867 492.434 498.73 492.643C507.737 493.304 523.585 491.936 524.19 490.28C526.309 484.552 524.853 482.758 526.65 473.977C526.838 473.044 527.067 472.034 527.339 470.932C528.823 464.906 530.249 462.861 525.189 453.124C520.598 444.303 515.818 437.139 515.38 437.393C503.058 444.567 502.111 438.457 502.111 438.457C502.111 438.457 489.658 451.089 489.772 465.376Z" fill="#9DB9BD"/>
<path d="M457.793 540.682L467.045 566.059C468.729 566.196 470.423 566.053 472.06 565.638C474.322 565.005 476.925 563.32 476.925 563.32C476.925 563.32 474.498 536.117 469.72 520.479L457.793 540.682Z" fill="#445A69"/>
<path d="M502.123 438.454C502.123 438.454 489.482 440.499 487.962 445.907L477.488 483.111C477.488 483.111 483.9 484.305 486.881 481.371C489.863 478.437 497.394 454.023 497.394 454.023L502.123 438.454Z" fill="#9DB9BD"/>
<path d="M498.733 492.638C507.741 493.298 523.588 491.931 524.194 490.275C526.312 484.547 524.856 482.753 526.653 473.972L522.394 461.745C522.394 461.745 523.017 475.332 518.973 478.878C514.929 482.423 502.471 485.658 500.496 488.627C499.554 490.058 498.923 491.492 498.733 492.638Z" fill="#85A7AC"/>
<path d="M509.095 487.003C509.095 487.003 500.221 484.968 498.78 485.744C497.339 486.521 493.814 489.359 493.369 490.352C492.924 491.345 496.567 489.613 497.751 489.312C498.518 489.112 500.527 489.825 501.521 490.162C505.706 491.586 508.282 490.886 508.282 490.886L509.095 487.003Z" fill="#FFBEB6"/>
<path d="M515.401 437.385C515.401 437.385 527.331 438.203 531.422 443.976C537.181 452.106 548.478 486.641 541.828 491.189C534.346 496.314 507.929 492.306 507.929 492.306C507.929 492.306 507.076 488.201 508.314 486.225C509.553 484.249 529.474 481.186 530.398 480.277C531.323 479.368 519.047 462.348 519.065 459.601C519.082 456.854 515.401 437.385 515.401 437.385Z" fill="#9DB9BD"/>
<path d="M498.336 488.203C498.336 488.203 496.457 490.583 495.844 490.867C495.535 491.03 495.186 491.102 494.838 491.074L496.108 488.829L498.336 488.203Z" fill="#FFBEB6"/>
<path d="M498.783 485.74L493.345 488.322C493.345 488.322 493.573 488.701 494.24 488.674C494.907 488.647 496.593 488.048 496.593 488.048L498.783 485.74Z" fill="#FFBEB6"/>
<path d="M497.003 494.735L454.168 494.434L441.509 462.407L484.278 462.708L497.003 494.735Z" fill="#78A9B1"/>
<path d="M453.678 493.185L510.24 493.584L510.23 494.829L454.17 494.434L453.678 493.185Z" fill="#579099"/>
<path d="M465.094 478.543C464.78 477.417 465.438 476.512 466.577 476.52C467.717 476.527 468.871 477.446 469.185 478.57C469.499 479.693 468.844 480.6 467.717 480.592C466.59 480.585 465.411 479.666 465.094 478.543Z" fill="#78A9B1"/>
<path d="M236.679 595.506L236.674 621.294L366.819 621.317L366.824 595.529L236.679 595.506Z" fill="#85A7AD"/>
<path d="M236.685 621.305L217.557 613.148L206.434 608.405L217.822 603.554L236.692 595.517C236.692 595.517 239.211 601.794 239.248 607.7C239.305 616.966 236.685 621.305 236.685 621.305Z" fill="#FFF4EC"/>
<path d="M381.967 604.098V612.251C381.967 613.443 381.731 614.624 381.273 615.726C380.815 616.827 380.144 617.828 379.298 618.671C378.452 619.514 377.447 620.183 376.342 620.639C375.236 621.095 374.052 621.33 372.855 621.33H366.836V595.544H373.382C375.658 595.544 377.841 596.446 379.451 598.05C381.06 599.654 381.965 601.829 381.967 604.098Z" fill="#FFF4EC"/>
<path d="M217.819 603.553C218.291 606.16 218.704 610.152 217.557 613.147L206.434 608.405L217.819 603.553Z" fill="#445A69"/>
<path d="M264.669 461.249C264.669 461.249 267 471.331 273.795 471.331C279.619 471.331 287.608 458.207 287.608 458.207L264.669 461.249Z" fill="#0B4F5A"/>
<path d="M342.682 610.161L338.314 613.155C338.314 613.155 317.318 590.848 312.25 569.464C311.346 565.648 310.98 561.881 311.368 558.311C311.368 558.311 311.061 557.342 310.525 555.63C310.5 555.554 310.476 555.477 310.453 555.401C310.206 554.662 309.937 553.765 309.623 552.765C308.607 549.535 307.208 545.112 305.613 540.079C301.945 528.499 293.551 502.368 289.964 491.502L315.741 482.206C315.741 482.206 318.67 488.859 322.877 506.948C323.525 509.308 324.175 511.92 324.78 514.763C325.468 517.986 326.11 521.509 326.644 525.313C327.644 532.49 328.16 539.726 328.189 546.972C328.204 550.208 328.122 553.56 327.942 557.027C327.801 559.565 328.189 562.94 328.889 566.798C332.127 584.392 342.682 610.161 342.682 610.161Z" fill="#445A69"/>
<path d="M356.415 620.908H335.577C335.577 620.908 334.796 617.597 336.165 615.34C337.376 613.347 336.907 612.211 336.014 610.56C337.12 611.038 338.32 611.263 339.524 611.218C340.563 611.159 341.66 610.691 342.624 610.132C343.521 611.152 347.36 615.49 348.557 616.35C349.924 617.326 355.997 616.979 356.415 620.908Z" fill="#445A69"/>
<path d="M326.644 525.311L310.453 555.399C310.206 554.659 309.937 553.763 309.623 552.762C308.607 549.532 307.208 545.11 305.613 540.076C301.945 528.496 293.551 502.365 289.964 491.5L315.741 482.204C315.741 482.204 318.67 488.856 322.877 506.945C323.525 509.306 324.175 511.917 324.78 514.761C325.468 517.983 326.103 521.507 326.644 525.311Z" fill="#2F4858"/>
<path d="M289.543 614.406C289.543 614.406 288.1 617.935 289.459 620.908H300.795C300.795 620.908 301.03 618.225 296.917 615.116C293.8 612.761 289.543 614.406 289.543 614.406Z" fill="#445A69"/>
<path d="M301.879 384.738C301.879 384.177 302.175 378.113 311.42 377.574C311.42 377.574 306.884 378.224 306.145 380.237C306.145 380.237 309.185 377.699 311.727 378.431C314.268 379.163 315.857 383.531 315.907 384.98C315.956 386.429 314.671 391.139 313.076 391.571C312.439 391.715 311.779 391.732 311.136 391.62C311.611 392.321 312.044 393.049 312.433 393.8C316.307 401.266 312.965 410.061 309.821 409.322C307.811 408.842 306.575 412.318 306.575 412.318L287.176 395.69C287.176 395.69 293.969 380.782 301.879 384.738Z" fill="#2D2C2C"/>
<path d="M289.686 435.264C291.837 436.742 294.533 437.974 297.92 438.757C310.611 441.679 315.47 430.989 317.3 423.649C315.974 422.918 314.51 422.47 313.001 422.334C312.084 422.225 311.12 422.154 310.319 422.114C308.895 421.025 306.772 416.573 306.302 409.66L305.704 409.82L295.698 412.55C295.698 412.55 296.155 415.718 296.38 418.709C296.555 421.055 296.583 423.295 296.133 423.842C295.354 424.012 294.897 424.122 294.897 424.122C292.807 427.662 291.062 431.393 289.686 435.264Z" fill="#FFBEB6"/>
<path d="M295.696 412.55C295.696 412.55 296.156 415.716 296.379 418.709C302.044 418.145 304.674 412.767 305.698 409.817L295.696 412.55Z" fill="#F2A19C"/>
<path d="M295.586 417.307C295.586 417.307 308.633 413.964 306.421 405.898C304.208 397.831 304.401 391.97 295.977 393.761C287.553 395.552 286.787 399.07 286.868 401.943C286.95 404.816 292.136 417.968 295.586 417.307Z" fill="#FFBEB6"/>
<path d="M286.019 397.353C287.359 394.379 289.023 394.495 290.076 394.993C296.102 389.158 302.26 393.657 302.26 393.657C304.731 399.206 309.824 401.374 309.824 401.374C309.824 401.374 307.846 403.481 302.015 403.574C300.23 403.604 298.416 402.835 296.757 401.744C298.842 403.695 301.185 405.353 303.72 406.671C296.374 405.452 291.267 397.131 290.743 396.247C290.145 397.173 289.013 399.142 288.946 400.785C288.864 403.015 289.739 407.322 288.452 407.516C288.461 407.511 284.012 401.815 286.019 397.353Z" fill="#2D2C2C"/>
<path d="M291.836 423.452C291.836 423.452 313.747 418.15 323.274 425.983L318.513 492.168L275.66 481.849C275.66 481.849 276.866 477.661 285.083 466.524C293.3 455.388 289.728 439.053 291.836 423.452Z" fill="#FFBEB6"/>
<path d="M304.598 484.801C304.598 484.801 304.573 485.025 304.528 485.454C304.509 485.636 304.484 485.858 304.457 486.119C304.271 487.844 303.923 491.125 303.468 495.405C302.291 506.63 300.447 524.658 299.189 538.889C298.2 550.015 297.582 558.821 297.918 560.235C298.934 564.49 297.918 615.353 297.918 615.353C294.277 617.095 288.755 615.353 288.755 615.353C288.755 615.353 279.053 569.526 280.41 563.147C281.767 556.768 279.503 551.338 279.503 551.338C271.971 516.374 272.794 496.994 274.292 487.718C274.579 485.8 275.009 483.905 275.58 482.051C275.722 481.577 275.895 481.112 276.097 480.659C292.732 476.205 304.598 484.801 304.598 484.801Z" fill="#445A69"/>
<path d="M326.228 444.86C325.173 452.823 320.941 462.565 319.428 467.81C319.428 467.81 321.954 486.02 319.542 491.019C319.27 491.589 318.929 491.988 318.513 492.168C309.58 496.048 274.781 492.281 273.312 481.093C272.778 477.028 286.567 462.728 287.37 460.991C287.704 460.274 288.06 457.948 286.443 453.126C284.152 460.168 271.503 458.143 271.503 458.143C272.986 455.612 276.694 438.097 280.815 430.191C283.919 424.248 292.21 423.388 292.21 423.388C292.21 423.388 295.658 428.841 304.003 428.069C312.348 427.298 313.871 422.206 313.871 422.206C313.871 422.206 321.272 423.191 323.551 425.019C323.947 425.335 327.617 434.428 326.228 444.86Z" fill="#23616B"/>
<path d="M319.425 467.81C319.425 467.81 321.952 486.02 319.539 491.019C313.031 487.762 307.899 478.947 309.086 469.136C309.961 461.883 311.261 460.227 315.156 456.078C318.016 453.028 324.631 452.855 324.115 454.306C322.567 458.638 320.221 465.044 319.425 467.81Z" fill="#0B4F5A"/>
<path d="M292.251 446.279L307.169 470.136H281.782L267.566 446.794L292.251 446.279Z" fill="#78A9B1"/>
<path d="M306.395 468.939L306.652 468.106L292.533 445.528L292.251 446.279L306.395 468.939Z" fill="#D5DADE"/>
<path d="M292.533 445.528L268.617 446.205L267.566 446.794L292.251 446.279L292.533 445.528Z" fill="#D5DADE"/>
<path d="M267.564 446.794L254.149 439.556L269.787 464.036L281.78 470.136L267.564 446.794Z" fill="#579099"/>
<path d="M338.563 463.514C337.127 464.169 333.437 468.498 332.122 468.934C326.201 470.905 301.008 465.655 301.008 465.655L301.786 461.257C301.786 461.257 326.505 461.91 329.224 461.185C329.739 461.047 332.411 456.883 333.427 456.285L338.563 463.514Z" fill="#FFBEB6"/>
<path d="M301.795 461.259C301.795 461.259 298.811 458.84 296.796 459.389C294.782 459.939 291.818 462.476 290.715 463.085C289.613 463.693 286.624 465.837 288.14 467.138C289.655 468.439 294.376 467.32 296.245 466.325C298.114 465.329 301.013 465.667 301.013 465.667L301.795 461.259Z" fill="#FFBEB6"/>
<path d="M297.365 459.31C297.365 459.31 293.741 458.879 292.752 458.899C291.764 458.919 292.03 459.145 292.577 459.899C293.123 460.653 295.012 460.959 295.098 461.225C295.185 461.491 297.365 459.31 297.365 459.31Z" fill="#FFBEB6"/>
<path d="M313.868 422.203C313.868 422.203 324.616 423.474 327.575 428.067C331.318 433.876 340.147 457.007 339.86 462.836C339.86 462.836 333.406 473.788 311.268 472.033C311.268 472.033 308.964 463.925 313.621 461.249C313.621 461.249 324.992 459.234 326.302 458.083L317.03 441.29L313.868 422.203Z" fill="#23616B"/>
<path d="M271.01 455.516C270.676 454.166 267.724 455.009 266.728 455.785C266.435 456.043 266.18 456.341 265.972 456.672C265.942 456.447 265.915 456.231 265.9 456.061C265.843 455.427 265.102 454.292 264.911 455.142C264.721 455.992 264.417 459.576 264.417 459.576C264.382 462.454 266.236 463.642 267.43 462.705C268.624 461.769 271.343 456.866 271.01 455.516Z" fill="#F2A19C"/>
<path d="M637.24 620.519H47.7599C47.3402 620.519 47 621.443 47 622.584V623.935C47 625.076 47.3402 626 47.7599 626H637.24C637.66 626 638 625.076 638 623.935V622.584C638 621.443 637.66 620.519 637.24 620.519Z" fill="#23616B"/>
<path d="M412 777H398.316V804.113H412V777Z" fill="white"/>
<path d="M273 793.554H276.473C276.729 795.182 278.311 795.916 280.108 795.916C281.589 795.916 282.848 795.529 282.848 794.188C282.848 793.074 281.845 792.727 280.754 792.467L277.597 791.674C275.41 791.133 273.384 789.919 273.384 786.765C273.384 783.51 276.022 781.916 279.401 781.916C282.975 781.916 285.459 783.51 285.776 787.178H282.235C281.979 785.744 280.721 785.137 279.179 785.137C278.149 785.137 276.796 785.517 276.796 786.825C276.796 787.818 277.759 788.159 278.661 788.359L281.75 789.119C284.779 789.886 286.287 791.16 286.287 794.288C286.253 797.536 283.716 799.13 280.115 799.13C276.251 799.13 273.195 797.316 273 793.554Z" fill="white"/>
<path d="M293.044 789.059L299.25 782.336H303.336L297.352 788.806L304.238 798.811H300.314L295.104 791.227L293.044 793.455V798.791H289.679V777.567H293.044V789.059Z" fill="white"/>
<path d="M312.318 802.606C311.833 803.98 310.642 804.68 308.649 804.68H306.913V801.458H307.586C309.228 801.458 309.295 801.172 309.841 799.804L310.291 798.59L304.368 782.336H307.875L312.042 794.061L316.174 782.336H319.681L312.318 802.606Z" fill="white"/>
<path d="M338.943 798.11V796.296C338.459 797.25 336.816 798.177 335.08 798.177C332.219 798.177 328.483 796.423 328.483 791.353V788.739C328.483 783.67 332.219 781.916 335.08 781.916C336.816 781.916 338.445 782.843 338.943 783.796V782.336H342.309V798.177C342.309 803.593 338.27 805 335.396 805C332.663 805 328.995 803.753 328.544 799.13H331.99C332.347 800.918 333.666 801.798 335.437 801.798C337.496 801.778 338.943 800.598 338.943 798.11ZM331.862 791.287C331.862 793.775 333.31 794.922 335.403 794.922C337.496 794.922 338.943 793.775 338.943 791.287V788.806C338.943 786.318 337.496 785.17 335.403 785.17C333.31 785.17 331.862 786.338 331.862 788.806V791.287Z" fill="white"/>
<path d="M349.72 787.465H346.273C346.852 783.096 350.426 781.916 353.099 781.916C355.993 781.916 360.011 783.323 360.011 788.739V798.81H356.646V797.25C355.589 798.524 353.879 799.13 351.692 799.13C348.67 799.13 346.031 797.636 346.031 794.255C345.978 793.148 346.306 792.056 346.962 791.158C347.617 790.26 348.561 789.609 349.639 789.312C351.658 788.705 353.819 788.545 356.619 788.359V788.339C356.457 786.204 355.071 785.15 353.112 785.15C351.423 785.137 350.164 785.904 349.72 787.465ZM356.632 792.247V791.32C353.677 791.513 351.423 791.707 350.204 792.441C349.94 792.596 349.725 792.822 349.583 793.091C349.44 793.361 349.376 793.664 349.396 793.968C349.396 795.302 350.426 795.916 352.23 795.916C354.155 795.916 356.632 795.309 356.632 792.247Z" fill="white"/>
<path d="M369.186 794.035C369.186 795.242 368.931 795.596 370.25 795.596H375.022V798.811H369.765C366.999 798.811 365.807 797.477 365.807 794.895V785.518H362.334V782.336H365.807V778.634H369.173V782.336H375.009V785.491H369.173L369.186 794.035Z" fill="white"/>
<path d="M387.857 793.614H391.303C390.724 797.983 387.15 799.164 384.484 799.164C381.583 799.164 377.565 797.763 377.565 792.341V788.772C377.565 783.35 381.604 781.949 384.484 781.949C387.365 781.949 391.397 783.35 391.397 788.772V791.734H380.944V792.28C380.944 794.762 382.391 795.942 384.484 795.942C386.154 795.942 387.412 795.182 387.857 793.614ZM380.944 788.739H388.018C388.018 786.351 386.537 785.17 384.484 785.17C382.431 785.17 380.944 786.338 380.944 788.739Z" fill="white"/>
</svg>
